<svg xmlns="http://www.w3.org/2000/svg" xmlns:xlink="http://www.w3.org/1999/xlink" version="1.1" id="Layer_1" x="0px" y="0px" viewBox="0 0 620 520" style="enable-background:new 0 0 620 520;" xml:space="preserve"> <g id="SvgjsG1120"> <path d="M193.9,159.9c-1.1-2.2-2.2,0-5.4-0.5c-1.1,2.7,2.2,2.7,2.2,4.3c-2.2,0.5-2.7-0.5-3.8-1.1c-1.1,2.2-2.7,3.2-3.2,5.9 c0,1.1,2.7-1.1,2.2,1.6c-3.8-0.5-4.3,2.2-5.9,4.3c0.5,2.7,2.2-0.5,3.8,1.1c-8.1,2.2-9.7,15.7-14.1,21.1c0,1.6,0,2.7,1.6,2.7 c0,2.2-1.6,0-2.7,0c-2.7,0.5-1.6,1.6-2.2,3.2c0.5,1.1,3.8,2.2,4.9,1.1c1.1,0,0,3.2-1.6,3.2c-1.1-1.1,0.5-1.1,0.5-2.7 c-2.2,1.1-2.2,0.5-4.3,0c-1.6,0.5-2.2,3.8,0.5,3.2c0,1.6-1.6,1.1-1.1,2.7c-1.6,0-1.6-0.5-1.6-1.6c-1.6,0-0.5,2.7-1.6,3.8 c0,0.5,0.5,0.5,1.6,0.5c0,1.6-1.6,1.6-1.6,3.2c0,1.1,1.1,0.5,1.1,1.6c2.7,0,1.1-3.8,3.2-3.8c-1.6,3.8-2.2,9.2-5.4,10.3 c0-2.2,1.6-3.2,2.2-5.4c-1.1-1.1-2.7-0.5-3.2-2.2c-1.1,1.6-2.7,4.3-1.6,7.6h-2.2c0,0.5,0.5,1.1,1.1,1.1c0,2.2-3.2,0.5-3.2,2.7 c4.3,1.6,5.9-3.8,9.7-3.2c-1.1,1.6-2.7,2.2-3.2,4.3c-4.3-0.5-3.8,1.6-7,1.6c0,1.1,1.6,0.5,1.1,1.6c-4.3,2.2-4.3,9.2-8.6,14.1 c0.5,1.1,1.6,0.5,2.2,1.1c0,1.6-1.6,1.6-3.2,1.6c-1.6,9.7-8.6,14.1-8.6,22.7c-3.8,2.2-5.9,8.6-5.9,12.4 c-10.3,18.4-14.1,38.3-23.2,54.5c0,1.1,1.6,3.8,0,4.3c0.5,2.7,1.6,1.6,2.7,2.2c-1.1,1.1-1.1,2.7-1.6,3.8c-1.6,0-1.6-1.1-3.2-0.5 c0.5-1.1,3.2-2.2,1.1-3.8c-2.2,1.6-2.2,5.4-4.3,7c0,2.2,1.1,2.7,1.1,4.9c-1.6,2.2-6.5,6.5-3.8,9.7c-1.6,0.5-3.8,0.5-3.2,4.3 c-1.6,1.6-4.3,4.3-2.7,6.5c3.2,0,5.4-4.3,2.7-6.5c2.7,1.1,2.7-1.1,3.8-1.1c-0.5,3.2-2.2,5.4-3.2,9.2h-3.8c-1.6-0.5,0.5,2.2-1.1,2.2 c0,0.5,1.1,0.5,1.1,1.1c1.1,0,1.6-0.5,1.1-1.6c1.6,0,1.1,1.6,2.2,1.6c-0.5,1.6-1.6,2.2-3.8,2.2c0,1.1,0.5,1.1,0.5,2.2 c-1.6,0.5-1.6,1.6-3.8,1.6c0.5,1.6-0.5,1.6-0.5,3.2c1.1,0.5,2.7,2.7,4.3,1.1c-0.5,2.7,1.6,3.2,0,4.9c-1.1,0-0.5-1.6-0.5-2.7 c-3.2,0-2.2,3.8-3.2,5.4c0.5,1.1,3.2,0,2.7,1.6c-5.4-2.2-5.9,8.6-5.4,11.9c-1.1,0-1.6-0.5-2.7-0.5c0-0.5-0.5-0.5-1.1-0.5 c0,0.5,0.5,0.5,1.1,0.5c-0.5,4.9,4.9,0,5.4,3.2H87c0,0.5,1.1,0.5,1.1,1.1c0.5,0,0.5-0.5,0.5-1.1c0.5-1.1,2.2-1.6,1.6-3.8 c3.2-1.6,2.7-5.4,1.6-8.6c4.9-0.5,1.6-4.3,2.7-9.2c1.1,0.5,1.1-1.1,3.2-0.5c-5.4-4.3,1.1-5.9,4.9-4.9c0-2.2-6.5-5.9-1.6-7.6 c-0.5-1.6-2.2-2.2-2.7-2.7c0-2.2,1.6-2.2,0.5-4.9c1.6,1.6,2.2,0,3.8,0c-2.2-1.6,1.1-4.9,3.2-3.8c2.7-2.2,4.3-8.1,2.2-10.3 c-0.5-1.6,1.1-1.1,1.6-2.7c1.6,0.5-0.5,2.2-1.1,2.7c2.7,0.5,1.1-2.2,3.2-1.6c0.5-1.6-1.6-4.9,0-6.5c0.5,1.1,1.1,1.6,2.2,1.6 c0.5-1.6-1.1-1.6-2.2-1.6c0.5-1.1,2.7-1.6,3.2-2.7c0.5-1.1-0.5-1.1-0.5-2.7h4.3c-4.9-3.8,8.1-17.3,1.6-16.7v-2.2 c1.1,0,2.2,0,2.2,1.1c4.3-5.9,6.5-13.5,9.2-21.1c0-0.5-1.1,0-1.6,0c2.2-1.1,2.7-3.8,4.3-5.4c0-2.2-3.8-1.1-3.2-3.2 c2.2,0,2.2-0.5,3.8,0.5c1.6-1.1,2.7-2.2,1.6-3.8c-2.2,0.5-1.6,1.1-4.3,0.5c0-1.6,1.6-2.2,3.8-2.2c0.5-1.6-1.6-1.1-1.1-3.2 c3.8-0.5,7-3.8,5.9-7.6c5.9-4.3,4.9-11.3,9.2-17.3c-1.6-1.6-1.6-3.8,0-4.9c0,1.1,0,1.6,0.5,2.2c2.2-1.6,2.7-4.9,3.8-7.6 c0-0.5-1.1,0-1.1,0.5c-2.2-1.1,0.5-2.7,0.5-4.3c1.1-0.5,1.6,0.5,1.1,1.6c2.7-1.1,4.3-3.2,4.3-7c-1.6-0.5-2.2,2.2-5.4,0.5 c3.2-1.1,3.2-4.9,7-6.5c0-1.6-1.1-2.2,0-3.2c0.5,0,0,1.6,1.1,2.2c0.5-0.5,0.5-2.2,1.1-3.2c0-1.1-1.1-0.5-1.1,0.5 c-1.6-0.5,0.5-2.2,0.5-2.7c0.5,0,0.5,0.5,1.1,1.1c1.6,0,0.5-2.2,2.7-1.6c1.1,1.1-0.5,1.1,0,2.7c1.1-0.5,1.1-1.6,2.2-2.2 c0-2.2-3.2-1.1-2.2-3.8c-2.7-0.5-1.1,3.2-3.8,3.2c0.5-3.8,2.7-5.9,3.8-9.2c1.1,0,0.5,1.1,1.1,1.6c1.1-2.2,3.8,0,4.9-1.6 c-0.5-0.5-1.6-0.5-3.8-1.1c-0.5-1.6-0.5-2.7,1.1-3.2c0,1.1,0.5,1.6,1.1,1.6c0.5-1.1-0.5-1.1-1.1-1.6c0.5-3.8,2.2-5.9,3.2-9.2h0.5 c1.1,3.2,3.2-1.6,4.3-2.2c0.5-2.7-1.6-3.2-1.6-4.9c1.6-1.1,1.6,0,2.7,0c1.6-1.6,0-5.9,2.7-4.3c0-1.1-1.6-4.3-2.7-2.7 c-1.6-0.5,1.1-2.2,0-3.8c-2.7,0-1.6,3.2-3.8,3.2c-1.6-2.7,3.2-3.2,3.2-7c0.5,1.1,0.5,3.2,1.6,5.9c2.2-0.5,2.2,1.6,3.8,0 c0.5-2.2-2.7-1.1-2.7-3.2c1.1,0.5,1.1-1.1,1.6-1.6c1.1,0.5,1.1,2.7,2.2,3.2c1.1-2.2-1.1-8.1,1.1-10.8c2.7,0,0.5,2.7,2.2,2.2 c2.2,0.5,2.2-1.6,2.2-2.7c-0.5-2.2-2.2,1.1-2.2-0.5c0-3.8,3.2-0.5,4.9-2.7c0-2.2,0.5-3.8,1.6-5.4c-2.7-1.1-2.2,4.9-4.3,4.9 c-1.6-1.6,0.5-1.1,0.5-3.2c2.7-2.2,2.7-7,5.4-9.7c1.6,1.1-1.6,2.2-1.1,4.3c3.2-6.5,7-13.5,8.1-19.4c2.2-2.2,1.6,1.1,2.2,1.6 c1.1-1.1,1.6-2.2,3.8-4.3c-0.5-1.6-1.6,1.1-3.2,0.5c2.2-2.2,1.1-3.2,2.7-5.9c1.6,1.1-1.6,3.2,1.1,3.2c2.2,0,3.2-7,2.2-6.5 c1.1-2.2,2.2,0,3.8-2.7c0-1.1-1.6-0.5-2.7-0.5c2.7-9.7,10.3-15.7,13-24.8c2.7,0.5,1.1,2.2,0,3.2c2.2,0,2.7-1.6,3.2-2.7 c0.5-1.6-1.6-1.1-1.1-2.7c0.5-1.6,0.5-3.2,2.7-3.2c0,1.1-1.1,1.6-0.5,2.7c1.6,0,2.7-1.6,2.2-3.8c0-1.1-1.6-0.5-2.2-0.5 c0.5-2.7,5.9-4.9,3.2-7c1.6-1.6,4.9-2.2,4.9-5.4c3.2,2.2,5.9-3.2,3.2-4.3c1.6-2.7,5.4-2.7,7.6-4.9c-1.1,1.6,2.2,1.6,1.1,0 c1.6,0,1.6,1.6,2.7,1.6c0.5,0,0.5-0.5,0.5-1.1c0.5,0,0.5-1.1,0.5-1.6c-0.5,0-0.5,1.1-0.5,1.6c-2.7,0,0-1.6-0.5-3.2 c-0.5-1.1-2.7,2.2-2.7-1.1c-2.7,0-1.6,2.7-4.3,2.2c0-2.2,4.3-5.9,6.5-9.2c1.1,0,0.5,1.6,2.2,1.6c-3.2-4.3,2.2-10.8,6.5-13.5 c-1.1,3.8-6.5,5.9-5.4,8.6c3.8-3.2,7-7,9.2-11.9c1.1-0.5,2.7-1.1,3.8-1.6c-1.1-2.7-3.2-1.6-4.3,0c-1.1-3.8,4.3-6.5,6.5-7 c0,0.5-0.5,2.2,0.5,2.2c1.1,0,0.5-1.6,0.5-2.2c5.4-1.6,5.9-8.6,11.9-10.3c1.6-8.6,12.4-12.4,16.2-20c1.6,0,2.2-1.1,2.7-1.6 c1.6,0,1.6-1.6,2.7-2.2c-0.5-1.6-2.7,0.5-2.7,2.2c-1.6,0-2.2,0.5-2.7,1.6c-1.1,0-1.1-1.1-1.6-1.1c-9.2,10.3-18.9,20-26.5,31.3 c-2.7-1.6,0.5-8.1,3.2-8.1c0-1.1,0-1.6-1.1-1.6c3.8-1.6,4.3-4.3,9.2-7c1.1-4.9,8.6-5.9,7.6-11.9c7-3.8,11.9-10.3,20-13 c-4.9-2.7-8.6,5.9-14.6,6.5c-3.8,3.8-6.5,8.6-12.4,9.7c-0.5,1.6,1.1,1.6,0.5,3.2c-4.9,3.8-13,7.6-12.4,14.1h-1.1 c0-1.6-0.5-2.7-1.6-2.7v-1.6c0.5,0.5,1.1,1.1,2.2,1.1c1.1-7,8.6-11.3,11.9-17.8c-7.6,4.9-11.3,11.9-16.2,18.4c0,1.6,2.2,0,2.2,0 c-1.1,3.8-4.9,1.6-7.6,4.3c5.9-10.3,14.1-19.4,24.3-26.5c0,1.6-2.2,1.6-2.2,2.7c2.2-1.1,4.3-3.2,6.5-4.9c-1.1-2.2-3.8,3.2-4.3,1.1 c2.7-3.8,7-8.6,13-7.6c0.5-1.6-1.6-0.5-2.7-0.5c0.5-2.7,4.9-1.6,5.4-4.3c2.3,2.2,4.9,1.1,6.6-1.1c11.9,1.6,16.2,10.8,25.4,15.1 c0,0.5-0.5,0.5-0.5,1.1c0,0.5,1.6,0,2.7,0c0,4.3,3.2,4.9,2.7,9.7c-8.1,3.8-11.9-1.1-20-3.8c-0.5-1.6,1.1-1.6,1.1-3.2 c-16.7,9.2-25.9,25.4-40,37.3c-4.3,9.7-14.6,18.4-19.4,30.2c-5.4,3.2-8.1,11.3-13.5,15.1c0,0.5,1.1,1.1,1.1,0 c0.5,5.9-5.9,9.2-7,15.7c-11.9,13.5-17.8,33.5-28.6,47c-2.2,11.3-11.9,19.4-14.6,31.9c-1.1,0.5-1.6,1.6-3.8,1.1 c0,1.1,0.5,1.6,0.5,2.7c-5.4,10.8-9.7,18.9-14.1,30.2c-0.5,0-0.5-1.1-1.6-1.1c-1.6,12.4-10.3,22.2-14.1,34c-1.6,0-1.1,1.1-2.2,0 c-0.5,1.6-1.1,5.4-1.1,7c0,0.5-1.1,0.5-1.6,0.5c-2.2,0.5,1.1,1.1,0.5,2.7c-9.7,19.4-16.2,38.9-26.5,58.9c-0.5,4.9-2.2,8.6-4.3,11.9 c-0.5,5.4-2.7,9.7-5.4,14.1c-2.7,10.8-8.1,22.2-13,31.3c-4.9,19.4-12.4,38.3-19.4,57.8c-4.3,20.5-14.6,38.3-22.7,58.3 c-8.1,5.9-14.6,15.1-27.5,14.1c-5.4-4.9-13.5-7.6-16.7-14.6c-2.7,0.5-2.2-1.1-3.8-0.5c-11.3-20-16.2-41.6-17.8-65.9 c-0.5-6.5-0.5-14.1,0-20c-3.2-5.9,1.1-15.7-2.7-18.4c2.2-15.1,0-29.7,2.2-43.2c-1.6-13,1.1-21.1,1.1-34.6c-2.2-7-0.5-10.8,1.1-17.3 c0.5-1.1-0.5-1.1-1.1-2.2c0-10.3,2.7-21.6,5.4-31.3c0-2.2-1.6-1.6-2.2-3.2c5.9-31.9,9.7-67.5,15.7-102.1c0-1.1-0.5-2.2-1.1-2.7 c0-1.1,1.6-1.1,2.7-1.6c1.6-13,2.2-33.5,15.1-40c1.6,0,1.6,1.6,4.3,1.1c-0.5,4.3,5.9,5.4,5.9,10.3c2.2,1.6,4.3,3.2,7,4.3 c0.5,2.7,0.5,4.3,1.1,7c-12.4,11.3-9.2,30.8-14.6,45.9c-0.5,1.6,0,2.2,1.1,2.2c-4.9,7,0.5,13.5-3.8,17.8c3.2,3.8-2.7,8.1-0.5,12.4 c-3.2,2.2-3.8,8.1-2.2,11.3c0,1.1-0.5,1.6-1.6,1.6c2.7,1.6-1.1,3.2,0.5,6.5c-1.1-0.5-1.1,1.1-2.7,0.5c2.2,2.2-2.7,4.9,1.6,6.5 c-1.1,2.2-1.1,2.7-0.5,5.9c-1.6,0-1.1-1.1-2.7,0c3.2,1.1,1.6,2.2,0,4.3c0.5,1.1,1.1,1.1,2.2,1.1c-1.6,5.9-2.2,9.2-4.3,14.6 c2.7,6.5-3.2,13-3.2,21.1c0,0.5,2.2,0.5,1.6,1.6c0,1.1-0.5,1.6-1.6,1.1c4.9,5.9-3.2,15.1,0,20c-2.2,4.9-2.2,10.3-1.1,16.7 c-1.1,0-2.2,0-2.7,0.5c1.6,5.9,1.1,9.7-1.1,14.6c1.6,3.2,3.2,9.2,0,11.9c2.7,2.2,1.6,4.9,0,7.6c2.7,1.6,1.1,3.2,2.2,5.4 c-2.2,0-1.6,1.6-2.7,2.7c0,0.5,0.5,1.1,1.6,1.1c-1.1,1.1-2.7,3.2,0,4.3c-2.2,2.7-3.2,9.2,0,11.3c-0.5,1.1,0.5,4.3-1.6,4.3 c1.1,2.7,2.2,5.9,1.6,9.7c-0.5,0-1.6,1.1-2.2,1.1c3.8,14.1,1.6,24.8,3.2,40c0.5,0.5,1.1,1.6,1.6,2.2c-2.7,10.3,3.2,16.7,2.7,27 c2.2,5.4,2.2,14.1,7,16.7c7.6-5.4,16.7-13.5,14.1-25.4c2.2,0,1.6-3.2,4.3-2.7c0-4.9,5.4-6.5,3.8-11.3c0.5,0,0.5-0.5,1.6-0.5 c0-2.7,1.1-2.2,0-3.8c9.2-14.1,11.3-31.9,20-47c-1.6-3.8,3.2-7.6,2.2-10.8c7-11.3,9.2-25.9,16.7-36.7c-0.5-5.9,3.8-8.6,3.8-15.1 c1.1,0,1.1-0.5,2.2-0.5c0.5-7,4.9-16.7,9.2-21.1c-1.1-2.7,1.1-4.3,0-5.9c6.5-8.6,7-21.1,14.6-29.2c2.2-13.5,12.4-27,15.1-39.4 c18.9-37.8,36.2-75.6,58.3-114c1.6,1.1,2.2,0,4.9,0.5c-0.5,2.7-1.6,1.1-0.5,3.2c-2.2,0.5-1.6-1.6-2.7-1.6c-3.8,1.1-1.1,5.4-4.9,5.9 c0.5,0.5,3.2,0,2.7,1.6c-1.6,1.6-2.2,0-3.2-0.5c-1.6,2.7-5.9,9.2-4.3,11.3c-1.1,1.6-2.2,2.2-2.7,3.8c2.7,3.2,7-5.4,7.6,0.5 c-1.6-0.5-2.7,0-3.2,2.2L193.9,159.9L193.9,159.9L193.9,159.9z M290.6,9.7v1.6c1.6,0.5,2.2-2.2,1.1-2.2 C291.7,9.7,291.1,9.7,290.6,9.7z M289.5,35.1C291.7,36.7,291.7,33,289.5,35.1L289.5,35.1z M282.5,41.1c-0.5,1.6,0.5,2.2,1.6,2.7 c0.5-2.2,3.8-1.1,3.2-3.8C285.2,40,285.2,42.7,282.5,41.1L282.5,41.1z M277.6,45.4C278.1,45.4,277.6,44.8,277.6,45.4L277.6,45.4z M273.3,51.9C273.3,52.4,272.8,51.3,273.3,51.9L273.3,51.9z M274.4,55.6c0-2.2,2.2-1.1,2.2-3.2h-1.6 C274.9,53.5,272.8,55.1,274.4,55.6L274.4,55.6z M271.7,57.8C272.2,57.8,271.7,57.2,271.7,57.8L271.7,57.8z M267.9,57.8 c-0.5,0-1.1,0-1.1,0.5C267.4,58.3,267.9,58.3,267.9,57.8z M265.8,64.8h1.6v-1.1h-1.6V64.8z M261.4,65.9h-0.5c0,0.5-0.5,1.1-1.1,1.1 V68C261.4,68,261.4,67,261.4,65.9C262.5,65.9,261.4,65.3,261.4,65.9z M264.1,68c0.5,0,1.6,0,1.1-1.1h-0.5 C264.7,67.5,264.1,67.5,264.1,68L264.1,68z M259.8,72.9C260.9,75.1,261.4,70.2,259.8,72.9L259.8,72.9z M255.5,73.4 C256.6,75.6,257.1,70.8,255.5,73.4L255.5,73.4z M252.3,76.7c0-0.5-1.1-1.1-1.6,0C251.7,76.7,251.7,77.8,252.3,76.7z M258.8,78.8 c0-1.6-1.1-1.6-2.7-1.6C256.1,78.3,257.7,78.3,258.8,78.8z M254.5,79.9V81c1.6,1.1,1.6-2.2,0.5-1.6C255,79.7,254.8,79.9,254.5,79.9 z M249.6,90.2c0.5,0,1.6-3.2-0.5-2.7C249,88.6,248,90.7,249.6,90.2z M245.3,89.1C245.3,89.6,244.7,89.1,245.3,89.1L245.3,89.1z M243.1,92.3c1.1,1.1,2.2,0.5,2.2-1.1C244.2,91.3,243.7,91.3,243.1,92.3z M247.4,92.3c-0.5,0-1.1,0-1.1,0.5 C246.9,92.9,247.4,92.9,247.4,92.3z M244.2,96.6c0-0.5,2.7-1.6,1.1-2.2C245.3,95,243.1,96.1,244.2,96.6z M234.5,105.3 c-1.1-0.5-2.2,2.7-1.1,3.2C233.4,106.9,236.1,106.9,234.5,105.3c2.2-0.5,3.2-2.2,3.8-4.3c-2.7,0.5-1.1-1.1-1.1-2.2 c-2.7,0-2.7,2.2-3.8,3.2c0.5,1.6,2.2-0.5,2.7,0.5C236.1,104.2,233.9,103.7,234.5,105.3C234.5,105.3,234.5,105.3,234.5,105.3z M244.2,99.3C244.7,102,244.7,97.7,244.2,99.3L244.2,99.3z M240.4,103.6c2.2,1.6,3.2-1.6,3.8-2.7 C243.1,101.5,241.5,102.6,240.4,103.6z M236.7,108C237.2,110.1,237.2,105.3,236.7,108L236.7,108z M238.3,108.5 c1.1,0,1.6-0.5,2.2-1.1C239.3,107.4,238.3,107.4,238.3,108.5z M231.2,111.7c2.2,0.5,1.6-2.2,2.2-2.7 C231.8,109,231.8,110.7,231.2,111.7z M233.9,109.6c0.5,1.6,0.5,1.1,0,3.2c1.6-0.5,2.2-2.2,3.2-3.2 C236.1,108.5,235.6,109.6,233.9,109.6z M233.4,116.6c0-1.6,1.6-2.7,0-3.2C232.9,113.9,231.8,116.6,233.4,116.6z M224.2,118.2h1.6 c-0.5-2.2,1.6-3.2-0.5-3.8C225.3,116.6,223.7,116.6,224.2,118.2z M228.5,116.6C229.6,119.3,229.6,113.9,228.5,116.6L228.5,116.6z M230.1,120.4c2.2,0.5,2.2-1.6,0.5-2.2C230.1,119.3,229.6,119.8,230.1,120.4z M221.5,123.6C222,124.1,221,123.6,221.5,123.6 L221.5,123.6z M224.2,124.1h1.1c1.1-1.6-2.2-1.6-1.6-0.5C223.7,123.6,224.2,123.6,224.2,124.1z M218.8,127.4 c1.1,0.5,2.7-1.6,1.1-1.6C219.9,126.8,218.8,126.8,218.8,127.4z M224.2,129.5c0.5,0,1.1,0.5,1.6,0.5c0-1.6,1.1-2.2,1.1-3.8h-2.2 C225.3,127.9,223.7,127.9,224.2,129.5z M219.9,131.2c1.6,0.5,3.2-1.1,2.2-1.6C222,130.6,219.3,129,219.9,131.2z M216.7,131.2 C217.7,133.3,218.3,129,216.7,131.2L216.7,131.2z M222.6,132.2C223.1,134.9,223.1,130.1,222.6,132.2L222.6,132.2z M218.8,132.8 C219.4,135.5,219.4,130.6,218.8,132.8L218.8,132.8z M224.8,132.8C225.3,133.3,224.2,132.8,224.8,132.8L224.8,132.8z M216.7,133.3 C217.2,133.8,216.7,133.3,216.7,133.3L216.7,133.3z M216.7,138.7c0-1.1,2.2-1.1,1.6-2.7C216.7,135.5,215.6,138.7,216.7,138.7 L216.7,138.7z M219.9,139.8v1.1h1.6C221.5,140.3,221,140.3,219.9,139.8c0.5-1.1,1.1-2.2,1.6-3.8 C218.8,135.5,218.3,140.3,219.9,139.8z M222.6,136C222.1,139.8,224.8,136.6,222.6,136L222.6,136z M216.1,143.6 c1.6,1.1,3.2,0,3.2-2.2h-2.7C216.7,142.5,216.7,143,216.1,143.6L216.1,143.6z M212.9,146.8C212.9,146.8,212.3,146.3,212.9,146.8 L212.9,146.8z M211.8,151.1c2.2,0.5,1.1-1.6,2.7-2.7C212.3,147.9,211.8,150.1,211.8,151.1z M215.6,150.6c0-1.1,2.2-0.5,2.2-2.2 C216.1,147.9,214,150.1,215.6,150.6z M209.1,151.7c1.1,0.5,2.7-1.6,1.1-1.6C210.2,151.1,208.5,150.6,209.1,151.7z M210.7,153.8 c-0.5,0-2.7,2.2-1.1,3.2C209.6,156,211.2,155.4,210.7,153.8C211.8,153.3,210.7,153.3,210.7,153.8z M205.8,159.2 C206.4,159.2,205.3,158.7,205.8,159.2L205.8,159.2z M211.8,158.2c-2.7,0.5-2.2,1.1-4.3,0C206.9,160.9,211.8,159.8,211.8,158.2z M201,160.9C202.6,163,202.1,158.7,201,160.9L201,160.9z M205.9,162.5h1.1v-1.1h-1.1V162.5z M209.1,163c0-0.7,0.2-1.3,0.5-1.6 C208,160.9,207.5,163.5,209.1,163z M200.4,164.1h1.1V163h-1.1V164.1z M206.9,165.7C207.5,166.2,206.9,165.2,206.9,165.7 L206.9,165.7z M204.2,167.3v1.6c1.6,1.1,2.2-2.2,1.1-2.2C205.3,167.3,204.8,167.9,204.2,167.3C204.2,167.3,204.2,167.3,204.2,167.3 z M197.8,169.5c0,1.1-1.1,1.1-0.5,2.7c2.2-1.1,3.2-0.5,3.8,0.5c0.5-0.5,2.2-2.7,1.6-3.8C201.5,171.6,199.9,170.6,197.8,169.5 L197.8,169.5L197.8,169.5z M203.2,170.6C204.2,172.2,204.8,168.4,203.2,170.6L203.2,170.6z M199.4,174.9h1.1v-1.6h-1.1V174.9z M194.5,177.6c1.6,0,2.2-1.1,2.2-2.7C195.1,174.3,195.1,175.9,194.5,177.6z M197.8,176.5C198.3,177,197.8,176.5,197.8,176.5 L197.8,176.5z M203.7,176.5C204.8,179.2,204.8,174.3,203.7,176.5L203.7,176.5z M197.8,179.2c0-0.5-1.1-0.5-1.1,0 C197.2,179.2,197.8,180.3,197.8,179.2z M197.8,180.8C196.1,182.4,200.4,182.4,197.8,180.8L197.8,180.8z M191.8,183.5 c1.1,0.5,2.2-2.2,1.1-2.2C192.9,182.4,191.3,181.9,191.8,183.5z M195,182.4h1.6v-1.1H195V182.4z M192.9,188.4 c0-1.1,0.5-1.6,1.1-2.7C191.8,185.1,191.3,188.4,192.9,188.4z M194.5,187.3h1.6v-1.6h-1.6V187.3z M185.9,188.4 c2.2,1.1,2.2-2.7,0-1.6V188.4z M189.1,188.4h1.6v-1.1h-1.6V188.4z M188.6,191.1c-0.5,0-1.1,0-1.1,0.5 C188,191.6,188.6,191.6,188.6,191.1z M189.1,192.1c1.1,0,1.1,0.5,1.6,0.5c0-0.5,0.5-0.5,0.5-1.1c-0.5,0-0.5-0.5-1.1-0.5 C190.2,191.6,189.6,191.6,189.1,192.1z M186.9,201.3c1.1-1.6,1.6-3.2,2.2-5.4C185.9,194.8,184.8,201.3,186.9,201.3z M184.2,199.7 C184.8,200.2,183.7,199.2,184.2,199.7L184.2,199.7z M188,202.9C188.6,203.5,187.5,202.4,188,202.9L188,202.9z M181.5,205.1 C179.9,207.2,183.1,203.5,181.5,205.1L181.5,205.1z M183.7,206.2c0.5-1.6,1.6,1.6,0.5,2.2c3.2,0.5,1.1-2.2,1.1-4.3 C183.7,203.5,181.5,205.6,183.7,206.2z M181,210.5C182.1,213.2,181.5,208.3,181,210.5L181,210.5z M179.4,213.2v1.1h1.6 c0-0.4,0.2-0.5,0.5-0.5v-1.1h-1.6C179.9,213,179.7,213.2,179.4,213.2z M161,214.2h1.1v-1.1H161V214.2z M175.6,215.9 c1.6,0.5,2.2-0.5,2.2-2.2C175.6,213.7,175.6,214.2,175.6,215.9z M171.3,217.5c1.6-0.5,2.2-1.1,2.2-2.7 C171.8,214.8,171.3,215.9,171.3,217.5z M178.9,218c0-1.1,0-2.2,0.5-2.7C177.2,214.8,177.2,218,178.9,218z M174.5,224 c1.6,0,1.6-1.6,2.2-2.7C175.1,221.3,174.5,222.9,174.5,224z M179.9,224.5C180.5,225,179.9,224.5,179.9,224.5L179.9,224.5z M175.1,229.9c0-4.3-3.8-1.1-5.4-2.7C169.7,229.9,172.4,229.4,175.1,229.9z M167,228.3C165.4,230.5,169.1,226.7,167,228.3 L167,228.3z M168.6,230.5h1.1v-1.6h-1.1V230.5z M171.8,232.1v1.6h1.1C173.4,232.6,172.4,232.6,171.8,232.1V231 c-2.2,0-4.3,7-1.1,5.4C169.1,234.8,171.3,233.2,171.8,232.1L171.8,232.1z M165.9,239.1c0.5-1.1,0.5-2.7-0.5-2.7 C164.3,236.9,164.3,238.6,165.9,239.1z M166.4,241.3C167,241.8,165.9,241.3,166.4,241.3L166.4,241.3z M168.6,241.3 C168.6,241.8,168,241.3,168.6,241.3L168.6,241.3z M171.8,242.9C172.3,243.4,171.3,242.3,171.8,242.9L171.8,242.9z M161,246.1h1.6 c1.1-1.1-1.6-1.6-1.6-0.5C161,245.6,161.5,245.6,161,246.1z M163.7,245.6C166.4,248.8,166.9,243.9,163.7,245.6L163.7,245.6z M162.1,252.6c0.5-1.6,1.6-2.7,1.6-5.4C161.5,247.2,161,251.5,162.1,252.6z M160.5,249.4C161,249.9,159.9,249.4,160.5,249.4 L160.5,249.4z M159.4,251.5h1.1v-1.6h-1.1V251.5z M160.5,255.8c0-0.5,0.5-0.5,0.5-1.1C160.5,254.2,158.9,255.8,160.5,255.8z M156.7,258.5c0-1.1,2.2-3.8,0-3.2C157.2,256.4,154.5,258,156.7,258.5z M157.8,260.7c2.2,0.5,1.6-3.8,0.5-3.2 C157.8,258.5,158.9,258.5,157.8,260.7z M154.5,262.3c0-0.4,0.2-0.5,0.5-0.5c0-0.5,0-1.6-1.1-1.1C154,261.2,154,262.3,154.5,262.3z M155.1,266.6c0.5-0.5,1.6-2.2,0-2.2C156.2,265.5,153.5,266.1,155.1,266.6z M153.5,265c-0.5,0-1.6,0-1.6,0.5 C152.4,265.5,153.5,265.5,153.5,265z M156.7,267.1c1.1,0.5,2.7-2.2,1.1-2.2C157.8,265.5,156.2,265.5,156.7,267.1z M154.5,268.8 C155.1,269.3,154.5,268.8,154.5,268.8L154.5,268.8z M149.1,273.1C149.7,273.1,149.1,272.5,149.1,273.1L149.1,273.1z M149.1,286 C150.2,288.2,150.2,283.3,149.1,286L149.1,286z M147.5,288.7h1.1v-1.6h-1.1V288.7z M137.8,291.4v0.5 C134.6,295.2,140,290.9,137.8,291.4z M142.7,295.2h1.6c0-1.1,0.5-1.1,0.5-2.2h-2.2C142.7,293,142.7,295.2,142.7,295.2z M138.9,300.6C136.7,303.3,142.1,301.1,138.9,300.6L138.9,300.6z M138.4,307.6C138.9,308.2,137.8,307.6,138.4,307.6L138.4,307.6z M129.2,317.9c0.5,0.5,0.5,1.6,1.1,1.6c-0.5-2.2,2.2-1.1,1.6-2.7C130.2,316.8,129.7,317.3,129.2,317.9z M127,323.3 c1.6,0,2.2-0.5,2.2-2.2C127.6,321.1,127.6,322.7,127,323.3z M128.6,333C127,335.2,130.2,331.4,128.6,333L128.6,333z M126.5,338.4 C127,339,125.9,338.4,126.5,338.4L126.5,338.4z M125.9,339.5C126.5,342.2,126.5,337.9,125.9,339.5L125.9,339.5z M124.3,343.8h1.6 v-1.6h-1.6V343.8z M18.5,362.2C17.9,365.9,21.2,362.2,18.5,362.2L18.5,362.2z M13.6,370.3C14.1,370.8,13.6,370.3,13.6,370.3 L13.6,370.3z M7.1,371.9c0-0.5-1.1-1.1-1.1,0C6.6,371.9,7.1,373,7.1,371.9z M22.2,375.1c0-1.1-0.5-1.6-1.1-2.2 C21.2,374,21.2,375.1,22.2,375.1z M103.8,376.2c1.6,1.1,1.6-3.2,0.5-3.2C103.8,374,103.2,374.6,103.8,376.2z M17.9,378.9H19v-1.1 h-1.1V378.9z M102.2,380.5C103.2,382.7,103.2,378.4,102.2,380.5L102.2,380.5z M88.1,393.5v1.1h1.1c0.5-1.1,0.5-1.6-0.5-1.6 C88.7,392.9,88.7,393.5,88.1,393.5C88.1,393.5,88.1,393.5,88.1,393.5z M96.2,395.1C97.3,397.8,97.3,392.9,96.2,395.1L96.2,395.1z M87,396.2v1.1c1.1,1.1,1.6-2.2,0.5-2.2C87.6,395.6,87.6,396.2,87,396.2L87,396.2z M87,399.9C87.6,400.5,87,399.4,87,399.9 L87,399.9z M85.4,403.7c-1.6,0-1.1,2.7-2.2,3.2C85.4,407.5,85.4,405.9,85.4,403.7C87,403.7,84.3,401,85.4,403.7z M80,414.5v1.1h1.1 c0-0.5,0.5-0.5,1.1-0.5v-1.6h-1.6C80.6,414,80.6,414.5,80,414.5C80,414.5,80,414.5,80,414.5z M79.5,424.8c1.1,1.6,2.2-1.6,3.8,0 c1.1,2.7-2.7,3.2-0.5,4.3c0-0.5,1.1-0.5,1.6-0.5c1.1-3.2-0.5-8.1,3.8-9.2c-0.5-3.8-3.8,0-5.9-1.6C82.1,421,79.5,421.5,79.5,424.8 L79.5,424.8L79.5,424.8z M77.9,422.1C78.4,422.6,77.9,422.1,77.9,422.1L77.9,422.1z M76.2,425.8C76.8,428,77.3,423.7,76.2,425.8 L76.2,425.8z M77.3,431.8c1.1,0.5,2.2-2.2,0.5-2.7C77.9,430.7,76.8,430.7,77.3,431.8z M82.2,431.8h-1.6 C81.6,431.8,81.6,432.9,82.2,431.8z M74.6,439.9c1.1-1.1,4.3-5.4,2.2-5.9C76.2,436.1,75.2,437.2,74.6,439.9z M78.9,440.4 c-1.1-2.2,2.2-3.2,0.5-4.3C78.9,437.2,76.8,439.9,78.9,440.4z M74.1,442.6h-0.5c-0.5,0.5-1.6,3.2,0,3.2 C74.1,444.7,74.1,444.2,74.1,442.6c0.5,0,1.1-0.5,1.1-1.6C74.1,441,74.1,442,74.1,442.6z M71.9,446.4 C71.4,450.1,75.1,446.9,71.9,446.4L71.9,446.4z M53.5,483.1c1.1,0.5,1.6,1.6,3.2,1.1c1.6-3.2,4.3-5.4,4.9-9.7 C56.8,475,56.2,479.8,53.5,483.1z M270.6,39.4c-2.2,5.9-10.8,10.8-9.2,16.2c-5.4-2.2-5.9,4.9-8.6,6.5c1.1-3.2,1.1-4.3,3.2-5.9 c-0.5-1.6-2.2,0.5-2.7,1.6c-1.1-2.7,1.1-3.8,4.3-2.7c1.6-1.6,2.2-4.3,4.3-5.9c-0.5-1.6-1.6,0.5-2.7,0c0-1.6,2.2-2.2,4.9-2.2 c0-2.2-1.6-2.7-1.1-4.9C265.7,41.1,267.4,41.6,270.6,39.4C270.6,39.4,270.6,39.4,270.6,39.4z M261.4,41.1 c-12.4,18.4-25.9,35.1-36.7,54c0,1.1,2.2,0.5,2.7,1.1c-0.5,2.2-1.6,1.1-3.2,0.5c-7,8.1-9.7,17.8-16.7,26.5 c-0.5,2.2,2.2,1.1,1.6,3.2c-1.6,0-2.7-1.6-3.2,0.5c-0.5,2.7,3.2-1.1,2.7,2.7c-5.4-1.6-3.8,2.7-7,2.7 C219.8,99.9,237.7,68,261.4,41.1L261.4,41.1L261.4,41.1z M262,45.4C264.1,43.8,260.3,47.5,262,45.4L262,45.4z M256.6,52.9 L256.6,52.9C257.1,53.5,256.6,52.9,256.6,52.9z M264.7,56.2C262.5,56.7,264.7,54.5,264.7,56.2L264.7,56.2z M249.5,58.9 c2.7,0.5,2.2,4.3-0.5,3.8C247.4,61,249.5,61,249.5,58.9z M251.7,63.7L251.7,63.7C251.7,63.7,251.1,63.2,251.7,63.7z M249.5,67.5 c0-1.1,0-2.2,0.5-2.7c1.6,0,0.5,2.2,0,2.7H249.5z M246.8,67V68c-1.1,1.1-1.6,0-2.7,0C244.1,66.4,245.2,66.4,246.8,67z M249.5,67.5 c0,0.5,0,1.1-1.1,0.5v-0.5H249.5z M251.7,68.6L251.7,68.6C251.7,69.1,251.1,68.6,251.7,68.6z M247.4,69.7c0,1.1-1.1,1.1-2.2,1.1 C245.2,69.7,246.3,69.1,247.4,69.7z M242.5,71.8L242.5,71.8C242.5,72.4,242,71.8,242.5,71.8z M244.1,72.9c3.8,0.5-1.6,5.4-2.7,7 c-1.1-1.1-2.7,0-3.2,1.1c-1.6,0-1.1-2.2-1.1-3.2C239.8,76.7,243.6,76.1,244.1,72.9L244.1,72.9z M240.3,78.3 C240.9,78.3,239.8,78.3,240.3,78.3L240.3,78.3z M247.4,74C247.4,71.3,250.1,74,247.4,74L247.4,74z M240.3,74h1.1v1.1h-1.1V74z M247.4,74L247.4,74C246.8,74.5,247.9,74.5,247.4,74z M249.5,81L249.5,81C250.6,81,249.5,80.5,249.5,81z M234.4,81 c1.1,0,1.6,1.1,2.7,1.1c0,1.6-1.1,2.7-3.2,2.2C233.3,83.2,234.4,82.6,234.4,81L234.4,81z M249,82.1c0-0.5,0-1.1,0.5-1.1 C249.5,81.6,249.5,82.1,249,82.1z M244.1,82.6C245.2,79.9,244.7,84.8,244.1,82.6L244.1,82.6z M243,83.2c-0.5,1.1-1.6,1.6-3.2,1.1 C239.3,82.1,242,83.7,243,83.2z M234.9,85.9c-0.5,1.1-1.1,2.2-2.7,1.6C232.2,85.9,233.3,85.9,234.9,85.9z M237.1,86.4 c-1.1,1.1,0,1.6,0,2.7c-1.6,0.5-1.6,0-2.7,0C235.5,88,235.5,86.4,237.1,86.4z M230.1,89.1c1.6-1.1,1.6,2.2,0,1.1V89.1z M234.4,91.3 c-1.1,2.2-2.7,5.4-5.9,7c0-2.2,1.1-2.7,2.2-3.2c-0.5-2.7-2.2,0-3.2-1.6C229,91.8,231.1,90.7,234.4,91.3L234.4,91.3z M229,98.8 c-0.5,1.1-3.2,3.8-1.6,5.4c-3.2,1.6-4.3,4.3-5.4,7c-2.2,0-2.2-1.6-2.7-2.7c3.2,1.1,2.2-2.7,2.2-5.9c1.6,0.5,1.1-1.1,2.2,0 c-0.5,1.1-0.5,1.6-1.6,1.6c0,0.5,1.1,1.1,1.1,1.6C225.2,104.2,225.7,99.4,229,98.8C229,98.8,229,98.8,229,98.8z M217.6,110.2 c1.1-0.5,1.1,0.5,1.6,0.5C219.8,111.8,216.6,111.8,217.6,110.2z M220.9,112.8c-1.1,2.2-4.9,3.2-5.4,0.5 C217.6,113.4,219.2,112.8,220.9,112.8z M223,113.9L223,113.9z M216.5,118.2c3.2-2.7,0,3.2-0.5,1.1 C216,118.2,216.5,118.8,216.5,118.2z M214.4,119.3c3.2,1.6-1.6,7-1.1,9.7c-1.1-3.2-1.1,0.5-3.2,0.5c0.5-2.2,2.2-2.7,0.5-5.4 c2.7,1.1,2.7-1.1,3.8-2.2c0-2.2-2.7-0.5-2.2-2.2C212.8,119.9,213.8,119.9,214.4,119.3z M211.7,131.2c-2.7,1.1-2.7,4.9-5.4,5.4 C207.4,134.4,208.4,129.6,211.7,131.2z M210.6,135C212.8,133.3,209,137.1,210.6,135L210.6,135z M202.5,138.2h0.5v1.1h-0.5V138.2z M209.5,138.7c0,1.1-1.1,1.6-2.7,1.1C206.8,138.7,207.9,138.7,209.5,138.7z M204.1,139.3c1.6,0,1.1,2.7-0.5,1.6v-1.1 C204.1,140.4,204.1,139.8,204.1,139.3z M209,140.9h1.1v0.5H209V140.9z M202.5,142C204.1,140.4,203.6,144.1,202.5,142L202.5,142z M197.1,145.2h1.1v1.6h-1.1V145.2z M200.3,147.9c0-0.5,0.5-0.5,1.1-0.5C201.4,147.9,200.9,147.9,200.3,147.9z M199.3,149 c3.2,0.5-0.5,2.2,0,2.7c-2.7-0.5-3.8,0.5-5.9,1.1C192.8,149.5,199.3,152.2,199.3,149z M200.9,150.6c1.6-0.5,1.6,0,1.6,0.5h-1.6 V150.6z M193.8,159.8v2.2c-1.1,0-1.6,0.5-2.2,0.5C191.7,161.4,192.2,160.3,193.8,159.8z M191.7,165.7c-2.2,2.7-3.8,9.7-9.2,7.6 C186.3,173.3,187.4,166.8,191.7,165.7z M190.1,172.2h1.1H190.1z M190.6,174.9c-1.1,0-1.1,0.5-2.2,0c0-0.5,0.5-1.1,0.5-1.6 c1.1,0,1.1,0.5,1.6,1.1C190.6,174.4,190.6,174.9,190.6,174.9z M185.7,179.8C186.8,177.6,186.8,182.5,185.7,179.8L185.7,179.8z M182.5,181.4c0,1.1-2.7,1.1-3.8,0.5C179.8,180.9,181.4,180.3,182.5,181.4z M176.6,183.5h4.9C182,185.7,176,186.2,176.6,183.5z M183.6,184.6C184.1,182.5,184.1,187.3,183.6,184.6L183.6,184.6z M179.3,185.7h1.6v1.6h-1.6V185.7z M173.3,197.6 c2.2,1.1,0,2.7-0.5,3.2C171.2,200.3,173.3,198.7,173.3,197.6z M172.8,206.8L172.8,206.8C173.9,206.2,172.8,206.2,172.8,206.8z M175.5,206.2c2.2,0.5-0.5,1.6,0,2.7C173.9,208.9,175.5,206.8,175.5,206.2z M172.8,206.8c0.5,2.2-1.6,1.1-1.6,2.7 C170.1,208.9,171.7,206.8,172.8,206.8z M169.6,208.9c-0.5,0.5-0.5,1.6-0.5,2.7c-1.6-0.5-2.7-0.5-2.7-2.2 C167.9,210,167.9,208.4,169.6,208.9z M173.3,210.5C172.8,207.8,175.5,210.5,173.3,210.5L173.3,210.5z M166.3,212.1h1.1v1.1h-1.1 V212.1z M166.8,219.2L166.8,219.2C167.4,219.7,166.8,219.2,166.8,219.2z M164.1,221.9c0-0.5,1.1-0.5,1.6-0.5 C165.8,221.9,164.7,221.9,164.1,221.9z M165.8,222.9C166.3,220.8,166.3,225.1,165.8,222.9L165.8,222.9z M160.9,232.1 C160.9,229.4,163,232.1,160.9,232.1L160.9,232.1z M160.9,232.1C160.9,233.2,159.8,232.7,160.9,232.1L160.9,232.1z M156,233.2h1.1 v1.1H156V233.2z M154.9,236.4L154.9,236.4C155.5,237,154.9,235.9,154.9,236.4z M153.9,237.5c1.1,0,1.1,3.8-0.5,2.7 C152.8,239.1,153.9,238.6,153.9,237.5z M156.6,242.4c0,1.1-1.1,1.1-0.5,2.2c-1.1-1.1-2.2-2.7-3.2-0.5 C149.6,241.8,153.9,241.3,156.6,242.4C156.6,242.4,156.6,242.4,156.6,242.4z M150.1,246.2c2.2,0.5,0,3.2-1.6,3.2 C149,248.3,150.1,247.2,150.1,246.2z M156,248.9L156,248.9C156,249.4,155.5,248.3,156,248.9z M150.6,249.9L150.6,249.9 C151.2,250.5,150.1,249.9,150.6,249.9z M150.1,253.2c-2.2-0.5-1.6,2.2-3.2,1.6C145.8,251.5,149.5,251,150.1,253.2z M150.1,253.2 c1.1,0,1.1,2.2,0.5,2.2C150.1,255.3,150.1,253.7,150.1,253.2z M145.2,255.9C146.8,254.2,146.3,258,145.2,255.9L145.2,255.9z M145.7,257.5c-0.5,1.1-0.5,3.2-2.2,3.8V258C144.7,258,144.7,256.9,145.7,257.5L145.7,257.5z M150.1,260.7c0-1.6,0-3.2,1.6-2.7 C152.2,259.6,151.1,260.2,150.1,260.7z M141.4,261.8h2.2c-1.1,2.2,0,4.9-2.7,4.9C139.8,265.6,142.5,265,141.4,261.8z M146.8,265.6 c1.6-0.5,1.1,1.1,1.1,2.2C146.8,267.7,146.3,266.6,146.8,265.6z M138.2,269.9C135.5,270.4,138.2,267.7,138.2,269.9L138.2,269.9z M138.2,269.9c1.6-0.5,2.2,0,2.2,1.6C139.3,271.5,137.6,271.5,138.2,269.9z M141.4,270.4L141.4,270.4 C142,271,140.9,269.9,141.4,270.4z M138.7,274.2C139.3,271.5,139.3,276.3,138.7,274.2L138.7,274.2z M135.5,276.9 c1.1,0,1.1,1.1,2.2,1.1c0,0.5-0.5,1.1-1.1,1.1h-1.1C135.5,279,135.5,276.9,135.5,276.9z M139.3,280.1c0.5,0,0.5,0.5,1.1,1.1 c-0.5,0-0.5,0.5-0.5,1.1C139.3,281.7,139.3,280.7,139.3,280.1z M137.6,282.3C136.6,279.6,139.3,281.7,137.6,282.3L137.6,282.3z M137.6,282.3c-1.1,1.1-3.2,1.6-4.9,2.2C132.8,282.3,135.5,282.3,137.6,282.3z M139.3,284.4c0-0.5,1.1-0.5,1.1,0 C139.8,285.5,139.8,284.4,139.3,284.4z M131.7,286.6c1.1,1.1-0.5,10.3-3.2,10.3C128.5,293.6,130.6,292,131.7,286.6L131.7,286.6z M127.4,301.2c-1.1,0-0.5,1.6-2.2,1.1c0-2.2,1.1-3.8,3.8-4.3C128.5,299,126.8,299,127.4,301.2L127.4,301.2L127.4,301.2z M127.4,301.2c0.5,0,1.1,0,1.1,0.5C127.9,301.7,127.4,301.7,127.4,301.2z M128.5,301.7c0.5,0.5,1.1,1.1,1.1,2.2 C128.5,303.9,127.9,302.8,128.5,301.7z M122.5,304.4C123.1,301.7,123.1,307.1,122.5,304.4L122.5,304.4z M124.1,306 c0-1.6,1.6-1.1,1.6-2.2C127.4,304.4,125.2,306,124.1,306z M124.1,306c1.6,1.1-0.5,2.2-0.5,4.3h-3.2c1.1-2.2,4.3-1.1,3.2-4.3H124.1z M130.1,307.1L130.1,307.1C129.5,307.6,130.6,307.6,130.1,307.1z M129.5,308.7C131.2,307.6,127.9,310.9,129.5,308.7L129.5,308.7z M119.8,311.4c1.1,0.5,2.7,0.5,2.7,2.2C120.9,313.6,119.8,313,119.8,311.4z M123.6,314.1L123.6,314.1 C124.1,314.6,123.6,314.1,123.6,314.1z M120.4,314.6c1.1,0,1.1,0.5,1.6,1.6c-0.5-0.5-1.1,0-1.1,0.5 C120.4,316.8,120.4,315.7,120.4,314.6z M123.1,315.2c2.2-0.5,1.1,2.2,0.5,2.2C123.1,317.3,123.1,316.3,123.1,315.2z M119.8,317.9 c-1.1,0.5-2.2,0-2.7-0.5C117.7,315.7,120.4,315.2,119.8,317.9z M125.8,316.8c1.1,0.5,0,0.5,0,1.1 C124.7,317.9,125.8,317.3,125.8,316.8z M124.1,320c1.1,0.5,1.6,1.1,1.6,2.2C124.1,322.2,124.1,321.1,124.1,320z M116.6,320.6h2.2 c-0.5,1.6-1.6,4.3-1.6,5.9C114.4,328.1,116.6,322.2,116.6,320.6z M119.8,323.8C120.9,321.6,121.4,326.5,119.8,323.8L119.8,323.8z M113.9,328.1c1.6-0.5,1.6,2.7,0,1.6V328.1z M120.4,329.2c1.1,1.1,1.1,1.6,0,2.7c-1.1,0-0.5-1.6-0.5-2.7H120.4z M113.3,333.5 c0,2.2-0.5,3.2-2.2,2.7C110.1,335.1,111.7,334,113.3,333.5z M116,333.5c1.1,0.5,0,3.2,0.5,4.3c-2.2,0.5-1.1-2.7-2.7-2.7 C113.9,334,116,334.6,116,333.5L116,333.5z M110.6,336.7c2.2,1.6-0.5,3.2,0,4.9C108.5,341.1,110.1,338.4,110.6,336.7z M108.5,342.1 h1.6v1.6h-1.6V342.1z M103.6,350.8C104.1,348.6,104.1,353.5,103.6,350.8L103.6,350.8z M105.2,353.5c2.2,0,2.2,1.6,3.2,1.6 c-1.1,1.1-3.8,1.6-4.3,3.2C101.4,356.7,105.7,355.6,105.2,353.5L105.2,353.5L105.2,353.5z M102.5,358.9c2.2,0,1.1,3.2-1.1,2.2 C101.4,360,103.1,360.5,102.5,358.9z M107.4,360c-0.5,1.1-1.1,1.1-1.6,2.2C104.1,361.6,105.8,359.4,107.4,360z M100.4,363.2h1.6 c0.5,1.6-0.5,1.6-0.5,2.7C100.4,365.9,99.8,364.8,100.4,363.2z M106.8,363.7c1.6,0.5,0,2.2,0,3.2 C104.7,366.4,106.8,364.8,106.8,363.7z M100.9,368.6c1.1-0.5,1.1,0.5,1.6,0.5c0,0.5-0.5,0.5-0.5,0.5h-1.1V368.6z M96,381.6 L96,381.6C96.6,382.1,96,381.6,96,381.6z M95.5,384.3C97.6,382.6,93.9,386.4,95.5,384.3L95.5,384.3z M95.5,385.3 C98.2,385.9,94.9,389.1,95.5,385.3L95.5,385.3z M92.3,391.8c0-1.1,0.5-1.1,0.5-1.6C94.9,390.2,94.4,392.4,92.3,391.8z M87.9,405.3 L87.9,405.3z M87.9,406.4c1.6,0.5,0.5,5.9-1.1,6.5C85.8,411.3,88.5,410.2,87.9,406.4z M90.1,411.8c-2.2,0.5-0.5-3.8,1.1-3.2 C91.2,409.7,90.1,410.2,90.1,411.8z M83.6,419.4c2.7,0.5,1.1,3.8-1.1,3.2C80.9,421.5,83.1,421,83.6,419.4z M330.8,431.8h1.1 C331.9,430.7,330.8,431.8,330.8,431.8c-1.1,0.5-1.6,1.1-2.2,2.2c-0.5,1.1,3.2-0.5,2.7,1.1c-2.2,3.2-9.7,4.9-8.6,10.3 c-2.2-0.5-2.7,0.5-3.8,0.5c0,2.7-1.1,3.2-1.6,5.4c-2.7,0.5,0.5-2.2-1.1-2.2c-2.7,1.6-2.7,5.9-7.6,5.4c-1.1,1.1,1.1,2.2-1.1,2.7 v-0.5c-0.5,0-0.5,0.5,0,0.5c-1.6,3.2-3.2,3.2-7,3.8c0,4.3-5.4,4.3-7.6,5.4c-1.6,0-1.6-1.1-1.6-2.7c-0.5,1.6-2.2,1.6-3.2,2.2 c0.5,2.7,2.7-0.5,3.8,1.1c-0.5,1.6-3.2,3.2-4.3,2.2c0,1.1-0.5,2.2,1.1,2.2c-7.6,3.2-11.3,6.5-20,9.2c-1.6,1.1-3.8,4.3-6.5,2.7 c-11.9,8.1-30.2,10.8-45.4,11.3c-20.5-3.8-26.5-26.5-21.6-49.2c8.6-29.7,36.7-41.6,60.5-56.7c11.3-4.3,23.8-10.3,35.6-11.3 c-0.5,2.7,0,3.2,3.2,2.7c-2.2,2.2-4.9,3.8-5.9,7.6c-10.3,1.6-18.4,6.5-24.8,12.4c1.1,2.7,2.7-1.6,5.4,0.5c2.2,0,3.2-3.2,1.1-3.8 c2.2-1.1,3.2-4.9,5.9-3.8c-0.5,2.7-3.2,2.7-3.2,5.4c0.5,1.1,1.1-0.5,2.7,0c-2.2,1.6-3.8,3.8-7,4.9c1.1,2.2,2.7-1.1,4.3-0.5 c-0.5,3.8-4.3,3.2-7.6,4.3c-3.8,7-14.6,8.1-18.4,15.1c-3.8,0-4.9,2.7-7.6,3.2c0.5,2.2-2.2,1.6-2.2,3.8 c-13.5,8.1-23.8,19.4-31.9,33.5c1.1,0.5,0.5,2.2,0.5,3.2c10.3,10.8,36.2,2.2,47.5-0.5c-1.1,2.2,2.2-1.1,0,0c0-1.1,1.1-1.1,1.1-2.2 c2.2,0.5,0,1.6,1.1,2.7c4.3-3.2,12.4-7.6,17.8-8.6c4.3-3.2,10.3-7,15.1-8.6c14.1-10.3,27-22.7,39.4-34.6 c3.8-6.5,5.9-12.4,11.3-16.2c5.4-10.8,8.6-18.9,8.6-33.5c-2.2-18.9-14.6-27.5-22.2-40c-0.5-1.1-1.6,0.5-2.2-0.5 c-10.8-12.4-24.3-21.1-37.8-30.2c-1.1-0.5-1.6-2.7-3.2-3.2c-0.5-1.1-3.2-0.5-4.9-2.2c-0.5,0-0.5-1.1-1.1-1.6 c-3.2-2.7-7-3.8-11.3-5.4c-10.8-7.6-23.2-15.7-35.1-22.2c-8.6-8.1-20.5-13-25.4-24.3c-4.9-3.2-8.1-9.2-9.7-14.1 c-9.2-29.7,10.3-54,26.5-68.1c0-1.1,0.5-2.2,1.1-3.2c3.8-0.5,3.8-4.3,8.1-4.3c1.6-3.8,7-7.6,12.4-9.7c2.2,0-0.5-1.1,0-2.2 c7.6-3.2,13-9.7,21.6-11.9l0,0c1.1-3.2,7-5.9,9.2-5.4c17.3-13.5,40-22.2,60.5-33c1.1,0,0.5-1.1,1.1-1.1 c21.6-8.6,42.7-17.8,65.9-24.8c0.5,0,0-1.1,0-2.2c9.2,0.5,17.3-4.9,25.4-5.4c14.6-6.5,45.9-13.5,63.7-5.4c1.1,1.6,2.7,2.2,2.7,4.3 c5.4,1.1,5.4,7.6,9.2,11.3c4.9,5.9,8.6,15.7,5.4,22.7c-1.1,1.1-2.2,3.2-3.2,3.8c-5.9,1.1-9.7,4.9-14.1,8.1c0-1.1-2.2-0.5-3.8-0.5 c2.7-8.1,5.9-13.5,6.5-24.8c-34.6-7.6-61.6,5.4-90.7,10.8c-3.8,3.2-10.3,3.8-13.5,6.5c-1.6,0-1.6-1.1-2.7-1.1v2.2 c-8.6,1.6-18.4,5.9-25.4,8.6c0,1.1-3.2,0-4.3,0.5c-5.9,8.1-18.9,5.4-24.3,13c-0.5,0-0.5-0.5-0.5-1.6c-1.1,0-0.5,2.7-2.2,3.2 c-5.4-1.1-5.9,3.2-8.6,3.8c-2.2,1.6-4.3,0.5-5.9,1.6c-4.3,1.6-7,5.9-11.9,5.9c-0.5,3.8-8.6,5.4-13,8.6c-2.7,2.7-7.6,4.9-12.4,5.9 c-1.6,0.5,0.5,1.1,0,2.7c-17.8,5.9-27,17.3-42.1,25.9c0,0.5,0,1.6,0.5,1.1c0,1.6-1.1,1.6-2.2,0.5c-7,5.4-11.9,11.9-18.4,17.3 c-0.5,1.6,0.5,1.6,0.5,2.7c-7.6,5.9-14.6,14.6-11.9,27.5c1.6,3.8,4.3,5.4,5.4,9.2c11.9,5.9,18.9,16.2,31.9,20.5 c2.2,2.7,3.8,4.9,7,5.4v1.6c3.8,0,2.7,1.1,5.9,1.6c0.5,1.1,1.1,2.2,1.1,3.2c9.2,0.5,16.2,10.3,26.5,13.5 c9.2,10.3,24.8,16.2,34,28.6c18.9,14.6,32.4,34.6,39.4,60.5c-2.2-1.1-0.5-6.5-2.7-8.1c2.7,13,2.7,29.7,2.7,44.3 c-2.7,10.3-8.1,14.6-9.7,22.7c-1.1,0-2.2,0.5-2.7,1.1c-1.1,5.4-7.6,7-7.6,12.4C333.6,431.7,332,434.9,330.8,431.8L330.8,431.8 L330.8,431.8z M376.8,72.1c0-0.5-1.6-0.5-1.6,0C375.7,72.1,376.2,73.2,376.8,72.1z M368.7,74.2c-0.5,0.5-1.6,0-1.6,0.5 C367.6,74.8,368.7,74.8,368.7,74.2z M359.5,77.5C358.4,78,359.5,78.5,359.5,77.5c1.1-0.5,2.2,2.2,2.2,0 C361.6,77.5,359.5,76.9,359.5,77.5z M351.4,81.8c2.2-1.1,3.8,0,4.3-2.2C354.1,79.6,351.4,79.1,351.4,81.8z M346.5,82.9 c0,0-0.5-0.5-1.1-0.5C344.3,83.9,347,84.5,346.5,82.9z M341.1,85.6h1.6v-1.1h-1.6V85.6z M337.3,87.2c2.2,0,3.8,0,3.2-1.6 C338.9,85.6,337.9,86.1,337.3,87.2z M329.2,89.9c-0.5,2.7-4.9,2.2-5.9,4.3c0.5,0,0.5,1.1,1.6,1.1c1.1-3.2,10.8-3.2,7.6-6.5 C333,90.4,330.3,90.9,329.2,89.9L329.2,89.9z M322.2,94.7C322.2,95.3,321.6,94.7,322.2,94.7L322.2,94.7z M321.1,94.7 c-0.5,0.5-1.1,0-1.1,0.5C320.6,95.3,321.1,95.3,321.1,94.7z M355.7,95.3C356.2,95.3,355.7,95.3,355.7,95.3L355.7,95.3z M317.3,95.3 C318.4,98.5,321.1,95.3,317.3,95.3L317.3,95.3z M331.9,96.9C331.9,97.4,331.4,96.9,331.9,96.9L331.9,96.9z M309.2,98.5 c-0.5,2.7,2.7,1.6,4.9,1.6c-1.6-1.6,0.5-2.7-1.6-3.2C312.5,98.5,310.9,98.5,309.2,98.5L309.2,98.5L309.2,98.5z M315.2,98L315.2,98z M317.9,102.3c1.1,1.1,1.1-2.7,0.5-2.7C318.4,100.7,317.9,100.7,317.9,102.3z M313.6,104.4c0-1.1,1.6,0,1.6-1.6 C314.6,102.3,311.4,103.9,313.6,104.4z M334.6,105.5c2.2,0.5,1.6-1.1,2.7-2.2C335.7,103.9,334.6,104.4,334.6,105.5z M296.3,106.6 c2.2,0.5,6.5-0.5,7.6-2.7C300.6,104.4,298.4,104.4,296.3,106.6z M325.4,106.6C326,106.6,324.9,106.6,325.4,106.6L325.4,106.6z M293.6,107.7h1.6c0-1.1-0.5-1.1-1.6-1.1V107.7z M323.8,107.1C324.3,107.1,323.8,106.6,323.8,107.1L323.8,107.1z M305.4,107.7 c-2.2,0-4.3,0.5-4.9,2.7C302.7,109.8,304.3,109.3,305.4,107.7C307.6,108.2,305.4,106.1,305.4,107.7z M286,112 c1.1,1.1,4.3,1.1,4.9-1.1C289.8,108.7,287.1,110.9,286,112z M309.8,110.4c-0.5,0-2.7-1.1-2.7,0.5 C307.6,112,309.2,111.4,309.8,110.4z M317.9,111.4c1.1,0,1.1,0.5,2.2,0.5c1.1-0.5,2.2-1.1,2.7-1.6C320,110.9,319,109.8,317.9,111.4 L317.9,111.4z M298.4,112c0.5,0,1.1-0.5,1.6-1.1C299,110.9,298.4,110.9,298.4,112z M311.9,111.4C312.5,112,311.9,111.4,311.9,111.4 L311.9,111.4z M284.4,112v1.6c1.1,0.5,1.6-2.2,0.5-2.2C284.9,112,284.9,112.5,284.4,112L284.4,112z M279.5,114.7 c0,1.1,2.2,0.5,2.7,1.6c-1.6,1.1-4.9-1.1-5.4,1.6c4.3,1.6,7-2.2,3.8-4.3C280.6,114.7,279.5,114.7,279.5,114.7L279.5,114.7 L279.5,114.7z M284.4,114.7c0-0.5-0.5-1.1-1.6-1.1C282.2,114.7,282.2,115.8,284.4,114.7z M288.2,116.8c-1.6,0-2.7,0.5-3.2,1.1 C286,119.5,287.1,117.4,288.2,116.8c2.2,0,2.7-1.6,3.8-2.2C290.3,113.6,289.8,116.3,288.2,116.8z M300.6,115.8 C301.1,115.8,300.6,115.2,300.6,115.8L300.6,115.8z M307.6,116.3c0.5,0,2.2,0,1.6-1.6h-1.1C308.2,115.8,307.6,115.8,307.6,116.3z M266,122.8c0,0.5,0.5,2.2,1.6,2.7c0.5-1.6,1.1-1.1,0.5-2.7c2.7,0,4.9-1.6,6.5-2.2c-0.5-2.2,1.1-1.6,1.6-3.2 C272.5,118.5,270.9,121.7,266,122.8L266,122.8L266,122.8z M296.8,119.5h1.1v-1.6h-1.1V119.5z M282.2,120.6c0-0.5,1.1-1.1,0-1.6 V120.6z M294.1,119.5C294.6,120.1,293.6,119,294.1,119.5L294.1,119.5z M299.5,120.1c-0.5,1.6,0.5,2.2,2.2,2.2 C301.1,120.1,300.6,119,299.5,120.1z M279.5,122.2c0.5,0,0.5,0.5,1.1,0.5c0-1.1,0-2.2-1.1-2.2V122.2L279.5,122.2z M289.8,122.2 C290.3,122.2,289.8,121.7,289.8,122.2L289.8,122.2z M291.4,121.2c0,0.5-0.5,0.5-0.5,1.1C291.4,121.7,291.4,122.2,291.4,121.2z M276.8,122.8c-2.2,0.5-3.8,1.6-4.9,3.8C273.6,126,275.7,124.4,276.8,122.8C279.5,122.8,276.8,120.6,276.8,122.8z M294.6,122.8 c1.1,0,2.2,0,2.7-0.5C295.7,121.7,294.6,122.2,294.6,122.8z M283.3,124.4c1.1,0,1.6,0.5,2.7,0.5 C286.5,123.3,283.8,122.8,283.3,124.4z M296.3,123.3C296.8,125.5,297.9,122.2,296.3,123.3L296.3,123.3z M258.5,128.7 c2.7-1.1,4.9-0.5,6.5-1.1c0-1.6-1.6-3.8-2.7-2.2C264.4,128.2,256.8,125,258.5,128.7L258.5,128.7L258.5,128.7z M286.5,126.6 c2.7,0,4.3,0,4.9-1.6C289.8,125.5,287.1,125,286.5,126.6z M295.2,125c-0.5,0-1.1,0-1.1,0.5C294.6,125.5,295.2,125.5,295.2,125z M273.6,128.2L273.6,128.2z M281.2,130.9c1.1,0,3.8-1.1,1.6-2.2c0,0.5-0.5,0.5-0.5,0.5c0-0.5,0-2.2,0-1.1 C282.2,129.3,281.7,130.3,281.2,130.9L281.2,130.9z M256.8,128.7c-1.6,0.5-3.2,0.5-3.2,2.7c1.1-0.5,1.1,0,1.1,0.5h2.7 C257.9,130.3,255.8,130.3,256.8,128.7C257.9,128.2,256.8,128.2,256.8,128.7L256.8,128.7z M264.4,131.4c0.5-0.5,2.2-0.5,1.6-2.2 C264.9,129.8,263.9,129.8,264.4,131.4z M276.3,130.9L276.3,130.9C278.4,129.3,274.7,132,276.3,130.9z M273.6,132 c1.6,1.1,1.6-1.6,0.5-1.1C274.1,131.4,273.6,132,273.6,132z M279,132h-1.6H279z M261.7,132c-3.2,1.1-4.9,2.2-7,4.3 C256.8,136.8,259.6,134.1,261.7,132C262.3,132,261.2,132,261.7,132z M250.4,134.1c-0.5-0.5-1.1-1.1-1.6-1.1c0,2.7-2.2-1.1-2.7,1.6 c2.7,2.2,7,0,8.1-2.7h-2.7C251.5,133.6,250.9,134.1,250.4,134.1L250.4,134.1L250.4,134.1z M272,133C273,135.2,273,131.4,272,133 L272,133z M269.3,134.1C269.8,134.7,269.3,134.1,269.3,134.1L269.3,134.1z M267.7,136.3C268.2,136.3,267.1,135.7,267.7,136.3 L267.7,136.3z M244.4,137.9c0.7-0.4,1.6-0.4,2.7,0c-0.5-0.5,0-1.6-1.1-1.6C246.6,137.9,243.3,135.7,244.4,137.9z M265.5,136.3 c-0.4,0-0.5,0.2-0.5,0.5C264.9,137.4,265.5,136.8,265.5,136.3z M246,141.7c3.2-1.1,7-1.6,8.6-4.9C250.9,137.9,248.7,140,246,141.7z M241.2,140.1C242.8,142.2,241.7,138.4,241.2,140.1L241.2,140.1z M260.6,140.1h-1.1C260.1,140.1,260.6,141.1,260.6,140.1z M238.5,141.7h1.1v-1.1h-1.1V141.7z M264.4,141.1C264.4,141.1,263.8,141.1,264.4,141.1L264.4,141.1z M256.3,142.2 C256.8,142.8,255.7,141.7,256.3,142.2L256.3,142.2z M240.1,146c2.7-0.5,4.9-2.2,5.9-3.8h-3.2C243.3,144.9,240.1,143.3,240.1,146 L240.1,146z M233.1,144.9c1.1,2.7-4.3,2.2-2.7,3.2c2.7,0,7.6-4.3,6.5,0.5c1.6,0,2.2-1.1,2.7-2.2c-2.2,0-1.6-2.7-3.2-3.2 C236.3,146.5,235.2,144.4,233.1,144.9L233.1,144.9L233.1,144.9z M253,143.8c-0.5,0.5-1.6,0.5-1.6,1.1 C252,144.4,252.5,144.9,253,143.8z M256.3,145.5c0.5,1.1,2.7,1.1,2.7-0.5C256.8,144.9,256.8,143.3,256.3,145.5z M255.7,144.9 c-0.5,0-1.1,0-1.1,0.5C254.6,145.5,255.2,145.5,255.7,144.9z M250.3,147.1C250.9,147.6,249.8,147.1,250.3,147.1L250.3,147.1z M253.6,148.7C254.1,148.7,253,148.1,253.6,148.7L253.6,148.7z M246,149.2h1.6v-0.5H246C246,148.7,246,149.2,246,149.2z M227.1,150.3h1.1c0-0.5,0.5-0.5,0.5-1.1c-0.5,0-0.5-0.5-1.6-0.5V150.3z M236.3,148.7c0,0-1.1,0-1.6,0.5 C235.7,149.2,236.3,149.2,236.3,148.7z M229.8,149.8C229.8,150.3,229.2,149.8,229.8,149.8L229.8,149.8z M248.7,150.3h1.6v-1.1h-1.6 V150.3z M241.1,150.8c1.1,0,3.2,0.5,2.2-1.1C242.2,149.8,241.1,150.3,241.1,150.8z M246,150.3C244.4,148.7,244.9,152.5,246,150.3 L246,150.3z M217.9,157.9C218.4,160,218.4,156.3,217.9,157.9L217.9,157.9z M222.8,158.4C221.2,160.6,224.4,157.3,222.8,158.4 L222.8,158.4z M222.2,159.5c-0.5,0-1.1,0-1.1,0.5C221.2,160,222.2,160,222.2,159.5z M227.1,162.2c-0.5,0-0.5-1.1-1.6-1.1 C224.4,162.7,227.1,163.3,227.1,162.2z M225.5,168.7c0.5-1.6-1.1-1.1-1.6-2.2C223.9,168.1,224.4,168.7,225.5,168.7z M222.3,170.8 c-0.5,0-1.1,0-1.1,0.5C221.2,171.4,222.3,171.4,222.3,170.8z M219,173C220.1,174.6,220.6,170.8,219,173L219,173z M206.1,183.2 c1.6,1.1,2.2-1.6,1.1-2.2C207.1,181.6,206.6,182.2,206.1,183.2z M210.9,182.7C211.5,183.2,210.9,182.2,210.9,182.7L210.9,182.7z M205.5,185.4C207.1,187,206.6,183.2,205.5,185.4L205.5,185.4z M207.1,190.8c-1.1,0-1.1-1.1-2.2-1.1 C203.9,191.3,207.1,191.9,207.1,190.8z M240.1,259.4h1.6v-1.1h-1.6V259.4z M273.6,269.7h1.1v-0.5h-1.1V269.7z M277.4,270.7 c0.5-1.1-1.1-1.1-1.6-1.1C275.2,270.7,276.3,271.3,277.4,270.7z M264.9,272.4h0.5v-1.6h-0.5V272.4z M267.1,273.4 C267.1,273.4,266.6,273.4,267.1,273.4L267.1,273.4z M272,275.6c0-1.6-1.1-2.2-2.7-2.2C268.7,275.6,271.4,274.5,272,275.6z M284.9,276.7C285.5,277.2,284.4,276.7,284.9,276.7L284.9,276.7z M288.7,278.8h1.1v-0.5h-1.1V278.8z M277.9,281 C278.4,281.5,277.9,280.4,277.9,281L277.9,281z M282.8,283.1c0.5-1.1,1.1-1.6,0.5-2.2h-1.1C282.2,281.5,282.2,282.6,282.8,283.1 L282.8,283.1z M277.9,282.1c-0.5,0.5-1.1,0.5-1.1,1.1C277.4,282.6,277.9,283.1,277.9,282.1z M284.9,286.4c-0.5-1.6,2.2-0.5,1.6-2.7 c-0.5,0-1.1-0.5-1.6-0.5C285.5,284.8,282.8,285.8,284.9,286.4L284.9,286.4z M299,284.8c-0.5-0.5-1.6,0.5-1.6,0.5 C296.3,288,300.1,285.8,299,284.8z M300.1,287.4h0.5v-1.1h-0.5V287.4z M290.3,287.4C290.9,290.1,293.6,288,290.3,287.4L290.3,287.4 z M287.6,290.1C288.2,292.3,288.2,288,287.6,290.1L287.6,290.1z M295.2,290.7C295.7,291.2,295.2,290.7,295.2,290.7L295.2,290.7z M298.4,293.9h1.1v-1.1h-1.1V293.9z M303.8,297.7c-0.5-1.6-2.7-2.2-3.8-3.8C300.6,296.6,301.7,297.1,303.8,297.7z M305.5,298.8h1.1 c0-0.5,0.5-0.5,0.5-1.1h-2.2C304.4,298.2,304.9,298.2,305.5,298.8L305.5,298.8z M315.2,306.3c3.8,5.9,9.2,9.2,14.1,13.5 C327.1,315.5,321.1,309.6,315.2,306.3c-2.2-1.1-5.4-8.1-8.1-5.4C310.9,302,311.4,306.3,315.2,306.3z M334.1,324.2 c-0.5-1.6-2.2-2.7-3.2-3.2C331.4,322.5,331.9,323.6,334.1,324.2z M340.6,334.9C341.6,337.1,341.6,332.8,340.6,334.9L340.6,334.9z M285.5,381.4c1.6,0,3.2,0,3.2-1.1C287.1,380.3,286,380.9,285.5,381.4z M281.2,384.6c-1.6,0.5-4.3,0-4.3,2.7 C278.5,386.2,280.6,386.2,281.2,384.6h1.1c-0.5-0.5,0-0.5,0-0.5v-1.6C281.2,382.5,281.2,383.5,281.2,384.6z M274.7,387.9h1.6v-1.6 h-1.6V387.9z M268.7,391.1c2.7-0.5,4.3-1.1,4.9-2.2c-0.5,0-0.5-1.1-2.2-0.5C272.5,390.6,268.2,389.5,268.7,391.1L268.7,391.1z M266,391.1C267.1,393.8,267.1,389.5,266,391.1L266,391.1z M264.4,392.7C266.6,393.3,264.4,390.6,264.4,392.7c-1.1-1.6-1.6,0-3.8,0 c-0.5,0,0,2.2-1.1,2.2c-2.2-1.1-2.2,2.2-4.9,0c0.5,2.2-1.1,1.6-1.1,2.7c1.1,0,1.1,0.5,3.2,0.5C257.4,396.5,262.8,395.9,264.4,392.7 L264.4,392.7L264.4,392.7z M247.7,398.1c-0.5,1.1-1.1,4.9-2.7,2.2c-0.5,1.6-3.8,3.8-2.2,5.4c0-1.6,2.7-1.6,2.7-0.5 c1.6-4.9,4.3-4.3,8.1-5.9c-1.1,0-0.5-1.1-1.6-1.1C251.5,399.7,249.3,398.1,247.7,398.1L247.7,398.1z M257.4,403 c-5.4,1.6-10.3,4.3-13,8.6c-2.7,2.2-8.6,3.2-7.6,5.9c3.8-2.7,9.7-4.3,13-9.2c0,1.1,0.5,1.1,1.6,0.5c2.7-3.8,11.3-2.2,11.9-10.3 h-1.6C260.6,402.5,259,400.8,257.4,403L257.4,403z M221.8,419.2c5.4-2.7,11.9-9.2,18.4-11.9c0-0.5,0.5-2.2,0-2.2 C234.2,409.5,226.1,413.3,221.8,419.2L221.8,419.2z M234.2,418.7c1.1,0,2.2,0,2.2-1.6h-1.6C234.7,417.6,234.2,418.1,234.2,418.7 C234.2,418.7,234.2,418.7,234.2,418.7z M328.2,420.3c-0.5-1.1-0.5-2.2-1.6-2.7C326,418.7,326,420.3,328.2,420.3z M230.4,419.7 C229.3,417.6,228.2,421.9,230.4,419.7c-1.1,3.8-5.4,3.2-5.9,5.9c2.7-1.6,7-2.7,8.1-6.5C231.5,417.6,231.5,419.2,230.4,419.7z M219.6,421.9c0-1.1,1.1-0.5,1.6-1.6c-1.1,0-1.1-1.1-2.2-1.1C219.1,420.3,218.5,421.4,219.6,421.9 C219.6,421.9,219.6,421.9,219.6,421.9z M340,420.3C340,420.8,339.5,420.3,340,420.3L340,420.3z M323.8,421.9 c0.5,1.1,2.2,0.5,2.7-1.1C324.9,420.8,323.8,419.7,323.8,421.9z M216.4,423c-0.5,0-0.5-0.5-1.1-0.5c-1.6,3.2-7,3.2-8.1,6.5 c1.6-1.1,3.2-3.2,6.5-3.2c0-0.5,0-1.6,1.1-2.2c0.5,0.5,0.5,1.1,1.6,1.1V423l1.6,0C218.5,421.4,215.3,421.4,216.4,423L216.4,423 L216.4,423z M328.2,423c0.5,0,1.1-0.5,1.1-1.1C328.2,421.9,327.6,421.9,328.2,423z M322.8,423.5c-1.1,0.5-2.2,0-2.2,1.1 C321.7,424.6,322.8,424.6,322.8,423.5z M326,425.7h-0.5c-1.1,0.5-1.6,1.1-2.2,2.2c1.1,1.6,2.2,0,2.2-2.2 C326,426.2,326,425.7,326,425.7C327.1,425.1,326,425.1,326,425.7z M322.8,425.7c-0.5,0.5-1.6,0-1.6,0.5 C321.7,426.2,322.8,426.2,322.8,425.7z M220.1,429.4C220.7,430,220.1,429.4,220.1,429.4L220.1,429.4z M322.2,431.1 c-1.1,0.5-3.2,0.5-2.7,2.2C321.7,433.7,321.7,432.1,322.2,431.1h0.5c0.5-0.5,1.1-1.6,0-2.2C322.2,429.4,321.7,430,322.2,431.1z M216.9,431.6c1.6,0.5,2.2,0,2.7-1.1C218,430.5,218,431.6,216.9,431.6z M314.7,433.2c0-1.1-0.5-1.6-1.1-1.6 C313.6,432.1,313,433.2,314.7,433.2z M201.8,432.1C202.3,434.8,202.3,430.5,201.8,432.1L201.8,432.1z M204.5,433.7 C205,434.3,203.9,433.2,204.5,433.7L204.5,433.7z M319,434.3C317.9,435.9,321.1,432.7,319,434.3L319,434.3z M313.6,440.2 c-1.6,0-2.2,1.1-2.7,2.2C311.9,441.9,313.6,441.9,313.6,440.2c1.6,0.5,2.7-2.2,1.6-2.7C315.2,439.2,313,439.2,313.6,440.2z M306,440.2c-0.5,0.5-1.1,0-1.1,0.5C304.9,440.8,306,440.8,306,440.2z M210.9,442.4c-0.5,0-1.1,0-1.1,0.5 C210.4,442.9,210.9,442.9,210.9,442.4z M309.2,445.1c0.5-1.1,2.7-2.2,0.5-2.7C309.8,442.9,307.1,444,309.2,445.1z M301.7,444 c-1.1,0-1.6,0-1.6,0.5C300.6,444.5,301.1,444.5,301.7,444z M297.4,445.1C298.4,447.2,299,442.9,297.4,445.1L297.4,445.1z M300.1,445.6C299,447.8,301.7,444,300.1,445.6L300.1,445.6z M302.2,451c2.7-1.1,4.3-3.2,5.9-5.4 C304.9,446.2,303.8,448.3,302.2,451z M296.8,448.3c-1.1,0-1.1-1.1-2.2-0.5c-0.5,1.6,1.1,1.6,2.7,1.1c-0.5-0.5,0.5-2.7-0.5-2.7 V448.3z M314.6,446.7v1.6c1.1,0.5,1.1-2.2,0.5-2.2C315.2,446.7,315.2,447.3,314.6,446.7z M291.9,450.5 C290.9,450.5,292.5,453.2,291.9,450.5c1.1-0.5,1.1,0.5,2.2,0.5c0-1.6-0.5-2.2-2.2-2.2V450.5z M300,452.6c0.5,0,1.6,0.5,1.6-1.1 h-1.1C300.6,452.1,300,452.6,300,452.6z M289.8,452.6C290.3,454.3,290.9,450.5,289.8,452.6L289.8,452.6z M299,453.2 C297.9,455.3,300.6,452.1,299,453.2L299,453.2z M307.6,452.6c-0.5,0.5-1.1,0.5-1.1,0.5C306.9,453.2,307.2,453,307.6,452.6z M285.4,456.4c-8.1,1.1-15.7,8.1-23.2,11.9c2.2-1.1,4.3,1.6,4.9-0.5c-1.6,0-1.6-0.5-1.6-1.6c5.4,1.1,5.9-3.8,8.1-2.7 C276.8,457.5,282.2,461.3,285.4,456.4c0.5-1.1,3.2,0,2.7-2.7C286,453.2,284.9,454.3,285.4,456.4L285.4,456.4z M296.2,456.4 c1.6-1.6,2.7,0,3.2-1.1C298.9,454.3,295.7,453.2,296.2,456.4z M302.2,456.4c2.2,0.5,4.9-0.5,2.7-1.6 C304.3,456.4,301.7,455.3,302.2,456.4z M298.4,459.7c1.6-0.5,2.7-1.1,3.2-3.2C300,456.4,299,458,298.4,459.7z M290.9,459.1 c-1.1-0.5-3.2,1.6-1.6,2.2C289.8,460.2,291.4,461.3,290.9,459.1c0.5,0,1.1-0.5,1.1-1.6C291.4,457.5,290.9,458,290.9,459.1z M291.9,462.3c1.6,1.1,4.3,0,4.9-1.1C295.2,461.8,293,461.8,291.9,462.3z M263.8,462.3L263.8,462.3z M282.2,465 C282.2,465,281.7,464.5,282.2,465L282.2,465z M275.7,466.7v2.7c1.1-1.1,2.7-1.6,3.8-3.2C277.3,465.6,277.3,467.2,275.7,466.7z M284.9,468.8c1.6,1.1,1.6-2.7,0-2.2V468.8z M248.7,468.3C250.3,471,249.8,466.1,248.7,468.3L248.7,468.3z M255.7,468.3 C255.7,468.8,255.2,467.7,255.7,468.3L255.7,468.3z M273.6,468.8C275.2,471.5,274.6,466.7,273.6,468.8L273.6,468.8z M245.5,469.9 c0-0.5-1.6-0.5-3.2-0.5C241.2,471.5,245.5,471,245.5,469.9z M261.7,469.4c-0.5,0.5-1.6,0-1.6,0.5 C260.6,469.9,261.2,469.9,261.7,469.4z M271.4,471.5h1.1v-2.2h-1.6C270.9,470.4,270.9,471,271.4,471.5z M256.8,471.5 c-1.6,0-2.2,1.1-2.2,2.2C256.8,474.2,255.7,472.1,256.8,471.5c1.1,0,2.2,0,2.7-1.6C257.4,469.9,256.8,471,256.8,471.5z M282.2,471.5C283.8,473.1,283.3,469.4,282.2,471.5L282.2,471.5z M227.1,474.7c0.5,2.2,0.5,5.4,2.7,3.8c-1.1,0-1.1-0.5-1.1-1.6 c3.2,0,6.5,0.5,8.1-2.2c-0.5,0-1.6,0.5-2.2-0.5c1.6-1.1,3.8,0,4.9-1.6C234.7,471.5,230.4,475.8,227.1,474.7L227.1,474.7 L227.1,474.7z M241.2,473.1h1.1c1.1-1.1-2.2-1.6-2.2-0.5C240.6,473.1,241.2,473.1,241.2,473.1z M268.7,474.2c0.5-1.1,2.2-1.6,0-2.2 C269.3,473.1,267.1,473.7,268.7,474.2z M249.8,473.7c-0.5,1.1-1.1,1.6-1.1,3.2c1.6-1.1,3.8-2.7,5.4-3.8 C252,473.1,250.9,473.7,249.8,473.7C249.3,473.1,248.8,473.7,249.8,473.7L249.8,473.7L249.8,473.7z M265.5,474.2 c0.5,0,1.1,0.5,1.6,0.5c-0.5-1.1,0-1.6-1.6-1.6V474.2L265.5,474.2z M240.1,474.7h1.1v-1.1h-1.1V474.7z M273,474.7h0.5v-1.1H273 V474.7z M225.5,475.3c-6.5,0.5-10.3,1.1-12.4,4.3c1.6,0,1.6-1.1,3.2-1.1c0.5,1.1,0.5,0,0,0c0.5-1.1,4.9-2.2,5.4,0 c-1.1,0.5-1.1-0.5-2.2-0.5c0.5,3.2,5.9,1.6,7.6,0c-0.5-0.5-2.2,0-2.2-1.1C225.5,476.9,225.5,475.8,225.5,475.3 C226.6,475.3,225.5,474.7,225.5,475.3L225.5,475.3L225.5,475.3z M273.6,476.4C274.7,478.5,273.6,474.2,273.6,476.4L273.6,476.4z M234.7,480.7c3.8-1.1,10.8,0,12.4-4.3C242.3,477.4,237.4,478,234.7,480.7z M269.3,476.9C269.8,477.4,269.3,476.4,269.3,476.9 L269.3,476.9z M267.7,477.4C268.2,478,267.1,477.4,267.7,477.4L267.7,477.4z M233.1,480.7C233.6,481.2,232.6,480.7,233.1,480.7 L233.1,480.7z M227.2,481.8C224.5,480.7,225,483.9,227.2,481.8L227.2,481.8z M230.9,481.2c-1.1,0-2.7,0-2.7,0.5 C229.3,482.3,230.9,482.3,230.9,481.2z M355.7,359.7c1.1,0,1.1,0.5,1.1,1.6h-1.1V359.7z M355.7,361.8c2.2,0,1.1,3.2,1.6,3.8 C355.7,365.6,355.7,364.5,355.7,361.8z M357.3,367.8C359.5,366.2,356.2,369.9,357.3,367.8L357.3,367.8z M356.8,371 c2.2,1.1,3.2,8.1,0,8.6V371z M356.8,382.9c1.6,0.5,0,2.7,0,2.7C355.7,385.6,356.8,383.4,356.8,382.9z M356.8,389.9L356.8,389.9 C356.8,389.9,356.2,389.4,356.8,389.9z M281.2,390.5c-1.1,0.5-2.2,1.6-3.8,2.2C277.4,390.5,280.1,389.9,281.2,390.5z M310.3,455.3 L310.3,455.3C310.9,455.3,309.8,454.7,310.3,455.3z M309.8,456.3c0,0,0-0.5,0.5-1.1C309.8,455.3,309.8,455.8,309.8,456.3z M309.8,456.3L309.8,456.3C309.2,456.3,309.8,456.3,309.8,456.3z M459.8,306.7c1.1,2.7,2.7,13-4.3,15.1c2.2,5.9-5.9,9.2-1.1,11.9 c2.2-1.6-1.6-5.9,3.2-5.4c-2.2,4.3-1.1,12.4-5.4,14.6c2.2,5.9,0,13.5-3.2,18.4c1.1,2.2,1.1-2.2,2.7,0c-4.3,7-0.5,16.2-6.5,20 c0.5,1.6,1.1-2.2,2.7,0c-0.5,8.1-3.2,11.3-1.1,18.4h-1.6c-1.1,13.5-0.5,30.8-2.7,47.5c1.6,2.7,2.7,6.5,1.1,9.7 c0,2.2,2.2,1.6,2.2,3.2c-0.5,0.5-1.1,0-1.1,1.1c0,6.5,1.1,16.7,4.9,17.8c1.6,10.3,8.1,23.8,18.9,24.8c9.7-1.6,17.3-8.1,23.8-13.5 c40-32.4,64.3-84.8,86.4-135.6c0.5-6.5,2.7-14.6,4.3-21.6c2.7,1.6,5.4,3.2,7.6,5.4c-2.7,5.4,3.2,10.8,1.6,15.7 c0,0.5,1.1,0.5,2.2,0.5c-0.5,3.2-1.1,5.4-2.2,8.1c2.7,0.5,0.5-3.8,3.2-3.2c0,1.6,1.1,2.2,0.5,4.3c2.2,0,2.2-1.6,2.2-3.2 c1.6,0,1.1,2.2,1.1,3.8c-0.5,0.5-1.6,0.5-3.2,0.5c-14.1,29.2-27.5,57.8-45.9,83.2c1.6,1.6-0.5,2.7,0,5.4c3.2-0.5,4.9-2.7,6.5-4.9 c0-1.1-0.5,0-1.6,0c6.5-8.6,14.1-18.4,19.4-29.7c3.8,3.2-3.8,7.6-1.6,11.3c-9.7,3.8-6.5,23.8-16.2,25.9c0,3.8-2.2,4.9-3.2,8.1 c-1.1,0.5-2.7,0.5-3.8,1.6c-5.4,13.5-16.7,20.5-23.8,31.9c-6.5-0.5-6.5,5.4-11.9,5.9c-9.7,16.2-46.4,20.5-58.9,4.9 c-2.7,1.6,3.8,3.8,1.6,4.9c-5.9-4.9-11.9-10.3-19.4-13.5c-5.4-8.1-9.2-17.8-14.1-27c-5.4-29.2-3.2-59.4-1.1-84.8 c0.5-9.2,2.2-23.8,4.9-29.7c0-24.3,9.2-45.4,12.4-68.1c1.1-2.2,1.1-5.9,3.2-7c0-1.1,0-1.6-1.1-1.6c2.7-6.5,5.9-16.2,6.5-23.8 c0.5,0,0.5-1.6,1.6-1.1c0.5-11.3,7.6-20,9.2-31.3c1.1,0,1.1-1.1,2.2-0.5c0-8.1,3.2-13,6.5-18.4V203c7.6-10.8,9.7-26.5,17.8-35.6 c0.5-1.6-1.1-1.6-0.5-3.2c6.5-7.6,8.6-19.4,16.7-25.4c0-2.7,1.1-2.7,0-4.3C523,109.6,537,75,578.6,72.3c1.6,0,1.1-1.6,2.7-1.6 c13.5-0.5,20.5,5.9,28.6,11.3v2.2c10.8,12.4,15.1,44.3,1.6,56.2c-2.7-0.5-3.2,1.1-6.5,0.5c-10.8-13-7.6-40.5-20-51.3 c-34,17.8-52.4,56.2-75.6,87c0,2.2-0.5,2.7-1.1,4.3c-3.2-0.5-2.2,2.7-4.3,3.2c2.7,8.1-8.6,15.1-9.2,22.2c-1.6,1.1-2.2-0.5-3.8,1.1 c-0.5,2.2,2.2,1.1,2.7,2.2c-2.7,3.8-3.2,9.7-8.6,12.4c0,2.2,3.2,3.2,1.6,5.9c-2.7-0.5,0-2.2-1.6-2.2c-2.2,0-1.6,3.2-2.7,4.3 c0.5,2.7,2.7-2.2,2.7,0c-2.2,2.7-1.6,4.9-4.3,7.6c1.1,0,1.1-1.1,2.7-1.1c-5.4,13-9.2,28.6-15.7,41.6c1.1,2.2,0.5-2.7,2.7-1.6 c-1.1,1.6-1.6,2.7-1.6,5.4c-1.1,0.5-3.2-0.5-3.2,1.1c4.9,3.2-1.1,10.3-1.6,16.7c-1.6,0-1.6-1.1-3.2-0.5c1.6,2.7,2.7,2.2,2.2,6.5 c-1.6,0.5-1.1-2.2-2.2-2.2C459.3,303.5,460.3,305.7,459.8,306.7L459.8,306.7L459.8,306.7z M523,122c0-1.1,2.2-3.8,0-3.2 C523,119.9,520.8,121.5,523,122z M516,128.5c-2.2,0.5-2.2,2.2-1.6,3.8c-0.5,0.5-2.2,0.5-3.2,1.6c-35.6,50.8-57.8,110.7-74,178.8 c2.2,2.7-2.7,7-0.5,10.3c-1.6,2.2-2.7,5.4-2.7,9.7c0,1.6-2.2,1.1-1.6,3.2c0.5,0.5,2.2,0,1.6,2.2c-1.1,0-0.5,1.6-2.2,1.1 c-3.2,18.4-6.5,37.8-7.6,54c0,1.6,2.2-2.2,2.2,0.5c-1.6,1.6,1.1,3.8-1.1,4.3c-1.6-0.5,1.1-2.2-1.1-3.2c-0.5,8.1-3.2,19.4-0.5,25.9 c-1.1,1.1-2.7,5.4-0.5,5.9c-0.5-3.8,1.6-1.6,2.7-2.7c0-11.3,2.7-15.7,1.1-29.7c0.5-2.2,1.6-3.2,2.7-5.4c-1.1,0-1.6-0.5-2.2-1.1 c2.7-2.2,2.7-6.5,3.2-9.7c-2.2-1.1,0,2.7-2.2,2.2c2.7-4.3,2.7-7,1.6-11.9c0.5,0,0.5,1.1,1.6,1.1c0.5-5.4-0.5-7.6,1.1-13.5 c0.5,0,0.5,1.1,1.1,1.6c0.5-12.4,4.9-23.8,4.9-35.1c3.2-3.8,2.2-8.6,3.2-12.4c13-54.5,32.4-109.7,58.9-155c-1.1,0-0.5-1.6-0.5-2.7 c3.8,0,7.6-8.1,7.6-11.9C513.3,139.3,514.9,133.9,516,128.5C517.6,128.5,514.9,125.8,516,128.5L516,128.5L516,128.5z M505.2,160.4 c0.5-0.5,1.6-2.7,0-2.7C505.2,158.2,503.5,160.4,505.2,160.4z M497.6,175c1.1-4.9,6.5-8.1,5.4-13.5 C501.9,166.3,494.9,171.7,497.6,175z M495.4,177.7h1.6v-1.1h-1.6V177.7z M494.9,182.5c-0.5-2.2,1.1-2.2,0.5-4.3h-1.6 C493.8,179.8,493.3,182,494.9,182.5L494.9,182.5z M490.6,184.7c1.1,0.5,3.8-0.5,3.2,1.6c1.6,0,2.2-1.1,2.7-2.2 c-2.7,0-2.7-2.7-5.4-2.7C491.6,183.6,490,183.1,490.6,184.7L490.6,184.7z M485.2,203.6C484.1,204.1,485.2,204.7,485.2,203.6 c2.2-0.5,2.2-3.8,2.2-7c1.6,0,1.1,1.1,2.7,0c0-3.2,2.7-4.9-1.1-6.5c1.6-1.1,5.4,0,5.4-2.2c-2.2-0.5-3.2-1.6-5.9-1.6 c-0.5,3.2-2.2,4.9,0.5,7c-1.1,1.1-1.6-0.5-3.8,0.5c0,3.8-3.2,3.8-2.7,8.1C484.6,201.4,485.7,201.4,485.2,203.6 C485.2,203.6,485.2,203.6,485.2,203.6z M498.1,197.1h1.6V196h-1.6V197.1z M480.3,208.4c0.5-1.1,2.2-1.6,3.8-1.6 c-1.1-1.1-1.1-2.7-2.7-3.2C483,206.8,478.2,206.8,480.3,208.4L480.3,208.4L480.3,208.4z M476,216.5c-1.6,0-5.9,9.2-1.6,11.9 c1.6-3.8-0.5-7.6,3.2-8.1c0-1.6-1.1-1.6-0.5-3.8c1.1,2.2,3.2,0.5,3.8-1.6c-1.6-1.1-2.2,2.2-2.7,0.5c-2.2-1.6,3.8-4.9,0-5.9 C478.2,212.2,475.5,212.7,476,216.5L476,216.5L476,216.5z M469.5,229.5c0.5,1.6,1.1,2.7,2.2,3.2c-0.5-2.7,2.7-1.1,2.2-3.8 C471.7,230,471.1,228.4,469.5,229.5L469.5,229.5z M471.1,238.7c-0.5-1.6,1.1-4.9-1.6-4.3C469.5,236.5,466.8,238.7,471.1,238.7z M466.3,240.8c0.5-1.1,1.6-1.6,0-2.2C466.3,239.2,465.2,240.3,466.3,240.8z M461.9,252.7c-1.6,2.7-4.3,7-2.7,10.8 c1.1-0.5,0-3.2,2.2-2.7c0,1.1-1.1,1.1-0.5,2.7c2.2-0.5,2.7-3.2,2.2-5.9c-1.1-0.5-1.6,1.1-1.6,0 C461.9,256.5,461.9,254.3,461.9,252.7c2.7,0,0,0.5,0.5,2.1c4.3-1.6,3.2-7.6,5.9-9.2c0-1.6-0.5-2.7-2.2-3.2c0,1.1-0.5,0-1.1,0 C463.6,245.1,462.5,248.9,461.9,252.7L461.9,252.7L461.9,252.7z M474.4,247.8c0.5-0.5,1.6-3.2-0.5-2.7 C473.8,246.2,473.3,247.3,474.4,247.8z M471.7,265.1c1.1-2.7,5.4-8.1,2.7-10.3C474.4,258.6,470,261.9,471.7,265.1z M471.7,257.6 C472.2,259.7,472.2,254.9,471.7,257.6L471.7,257.6z M452.2,287.3c2.2-7,5.9-16.2,5.9-23.2C456,271.6,452.2,279.7,452.2,287.3z M458.7,277.5c2.7-0.5,0-2.2,0-3.8c1.1-3.2,4.3-4.3,3.8-9.2c-1.1,0-2.2,0-2.7-0.5C461.4,267.3,454.4,273.8,458.7,277.5L458.7,277.5 L458.7,277.5z M468.4,267.3v1.1c1.6,1.1,2.2-2.2,0.5-1.6C469,266.7,469,267.3,468.4,267.3z M461.9,279.7 C462.5,281.8,462.5,277,461.9,279.7L461.9,279.7z M455.5,284c2.2,1.1,1.6-3.2,0.5-3.2C456.5,282.4,454.9,282.4,455.5,284z M461.4,286.7c-1.1-2.2,1.6-3.8,0-4.9C459.8,282.9,459.8,285.1,461.4,286.7z M466.3,287.2c0-0.5-1.1-1.1-1.1,0 C465.7,287.2,466.3,288.3,466.3,287.2z M459.3,292.6c0.5-1.6,2.7-4.3,0.5-5.4C459.8,288.9,457.1,291,459.3,292.6z M433.3,377.4 c5.4-27,8.6-54,17.8-77.2c0-3.8,0.5-3.8,0-7c1.1-1.6,3.8-1.1,3.2-3.8c-2.2,0-2.2-1.1-3.2-1.1C443.6,321.3,433.9,346.7,433.3,377.4z M464.7,292.6c-0.5-2.2,0.5-2.2,0.5-3.2H463C463,290.5,463,292.1,464.7,292.6z M462.5,294.3h1.6v-1.1h-1.6V294.3z M456.6,299.7 C456.6,304.5,458.2,297.5,456.6,299.7L456.6,299.7z M456,302.9C457.1,305.1,457.1,300.2,456,302.9L456,302.9z M450.1,306.7 c0-1.6,2.7-0.5,2.2-2.7c-1.1,0-1.6,0-2.2-0.5C450.6,304.5,448.5,306.1,450.1,306.7z M452.2,313.7c-0.5,0-1.6-1.1-2.2,0 c2.2,1.1-3.8,8.6,1.1,10.3c0.5-6.5,4.9-11.3,3.2-17.3C452.8,309.4,452.8,311.5,452.2,313.7L452.2,313.7z M456.5,318.6 c2.2-1.1,3.2-5.9,2.2-8.1C457.6,312.6,457.6,315.9,456.5,318.6z M448.4,330.4c1.6,0.5,3.2-5.4,0.5-5.4 C447.9,326.1,449.5,328.8,448.4,330.4z M445.2,327.2C445.7,329.9,445.7,325.1,445.2,327.2L445.2,327.2z M444.7,332.1 c0.5,0,1.1,0,1.6,0.5c0-1.6-1.1-2.2,0-3.2C444.7,329.4,444.1,330.5,444.7,332.1z M446.8,338.6c-4.3,0-2.2,7-4.9,8.1 c0.5,0,1.6,0,1.6,1.1c-0.5,1.1-3.8,5.9,0,6.5c1.1-5.9,1.6-8.1,2.2-14.6c2.2,1.6,3.8-5.4,2.7-7C447.3,334.2,446.8,335.9,446.8,338.6 L446.8,338.6L446.8,338.6z M445.7,335.3C446.3,335.3,445.2,334.8,445.7,335.3L445.7,335.3z M439.3,375.3c-0.5,2.7-3.8,6.5,0,8.1 c0-10.8,3.8-17.3,2.7-27.5C440.9,362.9,439.3,369.4,439.3,375.3L439.3,375.3L439.3,375.3z M432.8,359.1 C433.3,359.6,432.2,359.1,432.8,359.1L432.8,359.1z M448.4,362.9C449,365.6,449,360.7,448.4,362.9L448.4,362.9z M447.9,366.1 C447.9,366.6,447.4,366.1,447.9,366.1L447.9,366.1z M584.6,367.7C585.1,367.7,584,367.2,584.6,367.7L584.6,367.7z M591,371 C591.6,371,590.5,370.4,591,371L591,371z M445.7,376.9h1.1v-1.6h-1.1V376.9z M445.7,378C446.3,380.7,446.3,375.3,445.7,378 L445.7,378z M430.1,390.4c1.6-2.2,2.7-8.6,2.2-11.3C431.1,382.8,430.1,386.1,430.1,390.4z M584.6,380.1c-3.8,0-1.1,8.6-5.4,6.5 c0,2.2-1.1,2.7,0,4.9c3.8-1.1,4.9-5.4,3.8-9.2c1.1,0.5,1.1,1.1,2.2,1.6C585.6,381.8,584.5,381.2,584.6,380.1 C585.6,379.6,584.5,379.1,584.6,380.1L584.6,380.1L584.6,380.1z M445.2,383.9C444.7,387.7,445.2,381.2,445.2,383.9L445.2,383.9z M437.1,390.4C435.5,392.6,439.3,388.8,437.1,390.4L437.1,390.4z M443.6,393.6h1.6V392h-1.6V393.6z M578.1,396.9 c0.5-0.5,2.7-4.3,0-3.8C578.6,394.7,576.5,396.3,578.1,396.9z M437.1,393.6c-0.5,0-1.1,0-1.1,0.5 C436.6,394.2,437.1,394.2,437.1,393.6z M443,397.9C442.5,401.7,443.6,395.3,443,397.9L443,397.9z M436,399.6 C435.5,403.3,436.6,396.9,436,399.6L436,399.6z M429.5,400.6C430.1,401.2,429,400.1,429.5,400.6L429.5,400.6z M569.4,410.4 c3.2-0.5,6.5-7,3.2-9.7C571,404.4,570.5,406,569.4,410.4z M442.5,401.7C443,404.4,443,399.6,442.5,401.7L442.5,401.7z M429,403.3 C428.4,407.1,429,400.6,429,403.3L429,403.3z M441.4,405C441.9,407.6,441.9,402.8,441.4,405L441.4,405z M433.8,406.6 C434.9,408.7,434.9,403.9,433.8,406.6L433.8,406.6z M428.4,407.1C429,409.8,429,404.4,428.4,407.1L428.4,407.1z M568.3,413.1 C568.8,413.1,567.8,412.5,568.3,413.1L568.3,413.1z M432.2,413.6C432.7,414.1,431.6,413.1,432.2,413.6L432.2,413.6z M566.7,416.3 c0-0.5,0.5-1.1,1.1-0.5c-0.5-1.1-0.5-1.6-1.6-1.6C566.1,415.2,566.1,416.3,566.7,416.3L566.7,416.3z M433.8,415.8 C433.3,419,437,415.8,433.8,415.8L433.8,415.8z M430,419.5c0.5,0,1.1,0.5,1.6,0.5c-0.5-1.1,0-2.2-1.6-2.2V419.5z M562.4,420.6 c1.6,0.5,1.1-1.1,2.2-1.6h-2.2V420.6z M561.8,426c0.5-1.6,1.6-2.7,1.6-4.9h-1.6C562.4,423.8,558.6,424.9,561.8,426z M433.8,423.9 C434.3,424.4,433.8,423.9,433.8,423.9L433.8,423.9z M423,432v-2.2C420.9,428.7,420.9,432.5,423,432c0,1.1-1.1,1.1-0.5,3.2 c1.1-0.5,1.1,0.5,2.7,0.5c-1.6-3.8,1.6-7-1.1-10.3C422.5,427.1,424.6,429.8,423,432L423,432L423,432z M558.6,427.6 C559.1,428.2,558,427.6,558.6,427.6L558.6,427.6z M429.5,430.9c2.2,0.5,2.7-2.7,0.5-3.2C430.6,429.3,429,429.3,429.5,430.9z M557,432c2.2,0.5,2.2-3.2,0-2.2V432z M553.2,437.4c2.2,1.1,2.2-4.3,0-3.2V437.4z M425.2,440.6c0-1.6-0.5-2.7-1.6-3.2 C424.1,439,423,441.7,425.2,440.6z M431.7,441.7c-0.5-2.2-1.1-2.7-2.7-2.7C429,440.1,429.5,441.7,431.7,441.7z M423,446 c-1.1-1.1,0-7-1.1-5.9C422.5,441.7,420.3,446,423,446z M438.2,441.7C438.2,441.7,437.6,441.1,438.2,441.7L438.2,441.7z M562.9,443.8c0.5-1.1,0-2.2-1.1-2.2C561.8,442.8,561.3,444.9,562.9,443.8z M549.4,443.3C549.9,443.8,548.9,443.3,549.4,443.3 L549.4,443.3z M425.2,449.8c-1.1-2.2,0.5-3.2-1.6-4.9C424.1,447.6,421.9,449.2,425.2,449.8z M438.1,445.5 C437.1,449.2,440.8,445.5,438.1,445.5L438.1,445.5z M558.6,453c-0.5-2.2,3.8-4.9,0-4.9C558.6,449.2,557,451.9,558.6,453z M548.3,453c0-1.1,0.5-1.6,1.1-2.7C547.8,449.8,546.7,453,548.3,453z M423,456.3C423,461.1,424.6,454.1,423,456.3L423,456.3z M549.4,455.7C548.9,459.5,552.1,455.7,549.4,455.7L549.4,455.7z M430.6,460C431.1,460.6,430.6,460,430.6,460L430.6,460z M423.5,462.2C424.1,462.7,423.5,461.7,423.5,462.2L423.5,462.2z M431.6,464.9c0-1.1-1.6-1.1-1.6,0 C431.1,464.9,431.1,465.4,431.6,464.9z M539.7,469.8c0-2.2,3.2-1.6,2.7-4.3C540.2,465.4,537,468.7,539.7,469.8z M535.9,474.6 c1.6-0.5,3.8-4.3,1.6-4.9C538.1,472.5,535.4,471.4,535.9,474.6z M433.8,482.7C434.3,483.3,433.8,482.7,433.8,482.7L433.8,482.7z M434.9,486C434.9,486.5,434.3,486,434.9,486L434.9,486z M504,147.3L504,147.3C504.6,147.3,503.5,146.8,504,147.3z M484.6,198.6 c1.1,0.5,2.7,1.1,1.1,2.2C485.1,200.8,484.6,199.7,484.6,198.6z M465.1,244.5C466.8,241.8,466.2,246.7,465.1,244.5L465.1,244.5z M460.8,267.8L460.8,267.8C460.8,268.3,460.3,267.2,460.8,267.8z M446.8,282.9C447.9,280.2,447.9,285,446.8,282.9L446.8,282.9z M459.7,306.7c1.1,0,1.6,0,2.2,0.5c0,1.1-1.6,0.5-2.2,0V306.7z M457.6,322.3c1.6,0,0,2.2,0,2.7C456,324.5,457,322.3,457.6,322.3z M432.2,341.8C432.7,339.1,432.7,343.9,432.2,341.8L432.2,341.8z M431.6,345.5L431.6,345.5C431.6,346.1,431.1,345,431.6,345.5z M430,355.3L430,355.3C430.6,355.8,430,354.7,430,355.3z M595.9,358.5C597.5,355.8,596.9,360.6,595.9,358.5L595.9,358.5z M429,362.3L429,362.3C428.4,366,429,359.6,429,362.3z M428.4,367.1c0-0.5-0.5-1.1,0-1.1C431.1,365.5,425.2,370.4,428.4,367.1z M596.9,367.7C597.5,365,597.5,369.8,596.9,367.7L596.9,367.7z M595.9,368.7c3.8,2.7,0.5,8.1-2.2,10.3 C593.2,374.1,597.5,373.1,595.9,368.7z M427.3,373.6L427.3,373.6C427.9,373.6,427.3,373.1,427.3,373.6z M426.8,377.9 c2.2,1.1-0.5,2.7,0,4.3C425.7,382.2,426.3,378.5,426.8,377.9z M592.1,380.6c0.5,4.3-1.6,10.8-1.6,13.5c-1.1,0-1.1-0.5-2.2-0.5 c0,5.4-3.8,7-5.4,11.3c-0.5-0.5-1.6-1.6-1.6-3.2c2.7,0.5,1.1-3.8,4.3-3.2c0-3.2,0.5-5.9,3.2-7C587.7,388.2,591,384.4,592.1,380.6 L592.1,380.6L592.1,380.6z M428.4,383.3L428.4,383.3C429,382.8,427.9,382.2,428.4,383.3z M428.4,383.3L428.4,383.3 C427.3,383.3,428.4,383.9,428.4,383.3z M425.7,387.6C426.3,384.9,426.3,390.3,425.7,387.6L425.7,387.6z M425.2,398.4 c1.1,0,1.1,3.8-1.1,2.7C424.1,400,424.6,399.5,425.2,398.4z M424.1,403.3h2.2c-0.5,1.6-0.5,1.1,0,3.2 C424.1,406,423.6,404.9,424.1,403.3z M581.8,407.6c-0.5,4.9-3.8,7-5.4,11.3c-3.8-3.2,2.7-8.6,3.2-12.4 C580.7,406.5,580.7,407.6,581.8,407.6L581.8,407.6L581.8,407.6z M581.8,407.6c0-0.5,0-1.6,1.1-1.1v1.1H581.8z M423.6,407.6 C424.6,404.9,424.6,410.3,423.6,407.6L423.6,407.6z M574.3,411.4L574.3,411.4C573.7,415.2,574.3,408.7,574.3,411.4z M424.1,413 c1.1,0,0.5,1.6,1.1,2.7C423.6,415.2,423.6,413.5,424.1,413z M423.6,418.9L423.6,418.9C424.1,418.9,423.6,418.4,423.6,418.9z M566.7,424.4c2.2,1.1,0,3.8-1.6,2.7C565.1,426,566.7,426,566.7,424.4z M556.4,442.2L556.4,442.2 C557,442.2,556.4,441.6,556.4,442.2z"></path> </g> </svg>